<svg xmlns="http://www.w3.org/2000/svg" viewBox="0 0 60 60" transform="translate(9,9)">
    <path fill="#f05138" d="M49.489 13.7084c-.003-.4977-.0085-.9952-.0222-1.4936-.029-1.084-.0931-2.1778-.2858-3.2502-.1955-1.0891-.515-2.1018-1.0187-3.0911a10.3867 10.3867 0 00-1.9118-2.6317A10.3843 10.3843 0 0043.6186 1.33C42.6301.827 41.6173.5073 40.5292.312c-1.073-.1933-2.1668-.257-3.2517-.2863A71.4281 71.4281 0 0035.784.0033C35.193 0 34.6015 0 34.0107 0H15.4818c-.5914 0-1.1822 0-1.773.0034a71.4451 71.4451 0 00-1.4936.0223 38.379 38.379 0 00-.8148.0299c-.8157.0393-1.6326.1114-2.437.2563-.816.1467-1.5899.363-2.3427.6743A10.3792 10.3792 0 003.242 3.2418a10.3832 10.3832 0 00-1.9119 2.6316C.8264 6.8627.5073 7.8754.3116 8.9645.1191 10.0369.0551 11.1307.026 12.2147a71.6007 71.6007 0 00-.0226 1.4936C-.0005 14.2995 0 14.8908 0 15.4818v18.5285c0 .5916-.0006 1.1823.0033 1.7738a71.42 71.42 0 00.0226 1.4928c.0292 1.0846.0931 2.1787.2857 3.2506.1957 1.0887.5148 2.1023 1.0185 3.0914a10.3712 10.3712 0 001.912 2.6313 10.381 10.381 0 002.632 1.9125c.9885.5032 2.0013.8223 3.0896 1.0178 1.0723.193 2.167.2572 3.2516.2862a71.312 71.312 0 001.4936.022c.5908.0041 1.1815.0036 1.773.0036h18.5288c.5908 0 1.1822.0006 1.7732-.0037a71.542 71.542 0 001.4935-.022c1.0849-.029 2.1787-.0932 3.2517-.2861 1.0881-.1955 2.101-.5147 3.0894-1.0178a10.3845 10.3845 0 002.632-1.9125 10.3741 10.3741 0 001.9117-2.6313c.5037-.989.8232-2.0026 1.0187-3.0914.1927-1.072.2568-2.166.2858-3.2506.0137-.4975.0192-.995.0222-1.4928.0038-.5915.0035-1.1822.0035-1.7738V15.4818c0-.591.0003-1.1823-.0034-1.7734z"/>
    <path fill="#fff" d="M39.2172 30.5506l-.0035-.004c.0547-.1864.1112-.3715.1592-.5625 2.0541-8.1841-2.9593-17.86-11.443-22.9545 3.7177 5.0399 5.3615 11.1444 3.901 16.4829-.1302.4762-.2868.9332-.4599 1.3773-.1878-.1234-.4245-.2635-.7423-.4387 0 0-8.439-5.2106-17.5857-14.4268-.24-.242 4.8774 7.3141 10.685 13.4499-2.7362-1.5356-10.3616-7.0837-15.1889-11.502.5931.9891 1.2985 1.9415 2.074 2.8585 4.0312 5.1124 9.2884 11.4203 15.5868 16.264-4.4253 2.7082-10.6784 2.9188-16.9043.0029-1.5399-.7217-2.9876-1.5925-4.3277-2.5818 2.6355 4.2154 6.6944 7.8524 11.6345 9.9757 5.8912 2.5317 11.7496 2.36 16.113.0415l-.0034.005c.0199-.0126.0452-.0264.0659-.0391.1792-.0963.357-.1944.5309-.298 2.0964-1.0882 6.2373-2.1922 8.4598 2.1323.5444 1.0584 1.701-4.5503-2.5514-9.7826z"/>
</svg>