<svg xmlns="http://www.w3.org/2000/svg" width="400" height="400" baseProfile="tiny" viewBox="0 0 400 400">
    <g fill-rule="evenodd">
        <path fill="#A08DAE" d="M145.9 384.05c-5.8-2.14-11-5.3-15.85-9.06-2.97-7.9-8.22-14.4-12.58-21.4-11.74-19-23.47-37.9-35.3-56.8-.97-1.6-3.4-3.5-.26-5.4 7 3.1 13.6 7 19.5 12.1-.5 3.2 1.8 5.2 3.2 7.6 2.2 3.9 4.6 7.6 6.9 11.5-.6-2-.8-3.9.3-5.7.4-.3.9-.4 1.4-.3.4.3.7.7.9 1.1.4 2.4 1.5 4.2 3.6 5.5 2.4 1.4 4 3.4 3.9 6.3-.6.9-1.6.9-2.5 1-2.2.1-1.2 1.3-.7 2.3 9.6 14.7 18.7 29.8 28 44.7.9 1.4 1.9 2.8 2.1 4.4.3 1.7-.3 2.6-2.2 1.7z"/>
        <path fill="#A492B0" d="M145.9 384.05c3.24-1.65.36-3.43-.3-4.5-5.04-8.45-10.42-16.7-15.6-25.07-4.4-7.12-8.67-14.32-13-21.48 1.9-1.56 3.65-.6 4.66.9 1.74 2.6 3.86 2.62 6.7 2.53 4.62-.16 8.94 2 13.36 3.2 2.58.67 2.4 3.65 3.18 5.76.3 1.1.38 2.4.4 3.6 0 1.9 0 3.8.53 5.7.38 1.8.6 3.7.76 5.6-.1 4.9 2.2 8.6 5.5 11.9.6.2 1 .6 1.4 1.1.4.6.8 1.3 1.3 1.9.4.4.7.9 1 1.5.5 1.2 1.5 1.9 2.6 2.6 1.4 1.2 3 2.1 4.2 3.7.9 2.4 3.5 4.7 1.2 7.6-6.5-1.1-12.5-3.7-18.1-7z"/>
        <path fill="#9C88AC" d="M121.8 369.1c-13.45-9.1-23.6-21.22-31.36-35.33-6.15-11.2-11.5-22.75-13.53-35.54-.6-1.6-.5-2.84 1.7-2 1.6.64 2.4 2.3 3.2 3.73 13.2 21.6 26.9 42.87 40.1 64.43.9 1.3 3.6 3.1 0 4.7z"/>
        <path fill="#9E8AAD" d="M121.8 369.1c.8-.5 1.2-1.1.62-2.03-11.1-17.48-22.2-34.95-33.26-52.46-3.43-5.4-6.72-10.9-10.08-16.4-.75-1.2-1.54-2.8-2.17.1-2.2-5.9-2.9-12.1-3.6-18.2 1.5-.1 1.9 1.1 2.6 2 1.4 3.8 5.9 5.7 6.3 10.1-1.5 1.1-.4 1.9.2 2.9 12.3 19.6 24.5 39.1 36.8 58.7 3.6 5.8 7.4 11.4 10.8 17.3.6 1 3.5 2.7.3 4.2-3.1-1.5-5.7-3.5-8.2-5.9z"/>
        <path fill="#5A406A" d="M326.17 248.66c1.03 1.52 1.02 3.25.94 5 .9 3.65.2 7.36.4 11.04-2 3.8-3.1.73-4.3-.62-5.5-6.2-9.8-13.4-15.5-19.4-6.2-6.52-11.2-14-17.6-20.36-2.8-2.86-4.4-6.17-4.9-10.06-.5-1.4-1.1-2.78-1.2-4.3 0-1 .1-1.96.7-2.82 4.1-.93 5 2.73 6.8 4.95.9 1 .8 2.8 2.6 3.3 3 .9 5.3 2.3 3.7 6.1-.5 1.2.4 2 1.4 2.1 6.5.6 9.2 5.9 12.9 10.1 1 1.1 1.9 2.3 2.9 3.4 4 3.6 6.5 8.8 11.6 11.3z"/>
        <path fill="#553966" d="M313.98 219.03c1.55 3.38 4.06 6.3 5.02 9.97.7 2.7-.55 3-2.48 1.8-1.4-.86-2.53-2.16-3.6-3.43-8.22-9.8-17.2-18.86-26.6-27.5-3.43-3.12-5.4-7.65-9.7-9.88-2.25-1.9-3.53-4.4-5.23-6.7-4.8-7.2-10.7-13.2-16.8-19.2-.3-.4-.5-.9-.6-1.4-.3-1.3-.2-2.5.5-3.6 4.3-1 5.2 3.4 7.9 5 2.9 3.1 6 6.1 9.1 9.1 2.6 2.7 5.3 5.4 8.1 8.1 3.7 4.4 8.8 7.5 12.7 11.7 1.9 2.1 3.9 4 5.9 6 1 1 2 2.1 3.1 3.2.5.4 1 .9 1.4 1.3 4.5 4.4 7.8 9.7 10.9 15.1z"/>
        <path fill="#9984A9" d="M184.96 14.94c6.5-4.25 12.97-8.5 20-11.9 3.42-1.65 5.05-1.54 5.1 2.9.07 5.96.66 11.9 1.02 17.84.56 5.3.57 5.16-4.3 3.57-4.54-1.5-9.4-1.9-13.86-3.78-3.1-1.3-5.03-.1-6.3 2.73-.58-.03-1-.3-1.26-.8-1.23-3.47-.82-7.02-.4-10.56z"/>
        <path fill="#A090A9" d="M247.93 128.03L256 137c1.15 2.86 1.6 5.8 1.15 8.88-.06.53-.18 1.06-.32 1.57-1.14 3.24.16 6.75-1.12 9.98-.8 1.4-2 .95-2.9.17-5.9-5.48-12-10.76-16.8-17.3-.3-.53-.4-1.22-.5-1.87-.1-2.2.2-4.26-.5-6.6-.9-3.06 1-6.03 4.7-6.9 3.1.15 5.8 1.64 8.4 3.1z"/>
        <path fill="#9B88A8" d="M186.87 26.27c.1-1.8.2-3.57.28-5.28 6.25.8 11.72 4.1 17.97 4.1.75 0 1.7.3 2.22.8 3.9 3.7 3.58.4 3.74-2.2 1.3 2.3.88 4.8.84 7.2-.96 1.8-2.75 2.8-4.37 3.9-1.86 1.2-3.68 2.4-5.47 3.7-2.9 2.1-5.68 4.3-8.4 6.7-1.34 1.1-2.6 2.5-4.7 2-.7-.4-1.24-.9-1.62-1.6-.24-.5-.4-1-.5-1.5-.22-2.4-.15-4.8-.95-7.2-.1-3.7-1.2-7.5 1-11z"/>
        <path fill="#877294" d="M72.82 276.26c-1.83-12.7-1.22-25.43-.3-38.14.4-5.42.65-10.9 2.3-16.16.94-1.86 2.1-2.87 4.05-1.15 5.93 5.2 13.66 7.3 20.1 11.7 2.3 1.6 5.1 1.3 7.62 2 1.7.5 2.3-.6 2.7-2 .5-1.9.3-3.9.3-5.9 0-2.3-.1-4.7 0-7 0-1 .1-2.1.4-3.1.7-2 .5-4.1 1-6.1.2-.5.5-.9.9-1.3.6-.1 1.1 0 1.5.5.6 1 .8 2.1.8 3.3-.1 3.8.4 7.5-.3 11.3-1.1 6.4-1.2 12.9-2 19.4-.3 1.1-.8 2-1.5 2.8-4.5-.2-7.9-2.6-11.2-5.14-2.2-1.75-4-3.74-7.4-2.7-2.5.7-4.7-1.2-6.7-2.67-1.7-1.3-3.4-2.7-5.3-3.77-2.8-1.56-4.4-1-4.7 2.4-.1 2.05 0 4.1-.4 6.2-.7 2.95-.7 6-.5 9v6.9c0 3 .1 5.9 0 8.9-.2 3.3.4 6.6-.5 9.9-.3.6-.6 1.04-1.2 1.4z"/>
        <path fill="#573C68" d="M277 189c6.24 3.1 9.28 9.55 14.46 13.9 7.07 5.9 12.97 13.24 19.33 20 2.1 2.23 4.1 4.53 6.1 6.85 1.4 1.67 1.8.62 2.1-.75 3.6 6.12 6 12.63 7.1 19.66-.4 1.24-1.1 3.38-2.3 1.3-2.7-4.6-7.2-7.47-9.9-11.96 1.5-2.1.5-3.64-1.1-5.14-7.7-7.34-14-15.98-21.9-23.04-3-2.62-4.9-6.38-8.7-8.06-2.2-2-2.8-4.97-4.3-7.4-.3-1.8-2.6-3.22-1-5.36z"/>
        <path fill="#AD9EB7" d="M247.93 128.03c-3.28.65-5.74-2.3-8.93-2.03-.93-1.02-2.8.13-3.48-1.47-7.6-6.4-15.15-12.87-23.9-17.75-.8-2.5.87-4.6 1.14-6.9.15-.7.4-1.37.82-1.96 1.82-1.7 3.38-1.32 5.06.38 3.1 3.15 6.7 5.77 10.3 8.34 1.45 1.03 3.04 1.96 5 1.6 4.66 6.6 9.32 13.2 14 19.8z"/>
        <path fill="#715782" d="M207 34.03c1.65-1 3.3-1.98 4.92-2.98L213.97 45c-1.02 7.7-3.55 15.04-5.38 22.54-.8 3.02-1.1 6-4.5 7.75-2.7 1.3-2 4.6-2.3 7.2-.4 2.7-1.4 4.1-4.2 2.5-1.2-1.7-1.8-3.6-1.3-5.6 2.2-3.1 2.9-6.9 3.3-10.4 1.4-12 5.1-23.4 7.3-35.1z"/>
        <path fill="#8E7B99" d="M111 219v8c-.45.53-.67 1.28-1.44 1.52-4.24-.52-7.63-2.87-10.82-5.4-6.6-5.24-14.04-8.9-21.75-12.12 0-2.83.8-5.46 2-8 1.2-2.23 2.8-1.56 4.6-.6 4.6 2.5 9.2 4.93 13.3 8.46 4.1 3.56 9.9 4.54 14.1 8.14z"/>
        <path fill="#8A7596" d="M110 228l1-1c-.03 10.38-3.16 12.38-11.98 6.82-7-4.42-15.47-6.4-21.37-12.65-1.43-1.5-1.8.76-2.8.8 0-2.06.07-4.1 1.1-5.95.7-3.3 1.73-4.18 5.14-2.02 7.7 4.92 16.3 8.54 23.8 14.02 1.6 1.17 3.4 2.37 5.1-.02z"/>
        <path fill="#A8A0AC" d="M313.02 330c-.35 2.35-1.78 4.13-3.1 5.97-1.42.57-2.6-.04-3.7-.85-10.18-7.7-20.43-15.33-30.46-23.24.98-2.94 3.96-2.52 6.04-3.62.72-.2 1.45-.3 2.2-.28 2.35.1 3.9 1.75 5.63 3 6.88 4.94 13.42 10.36 20.34 15.27 1.35.95 2.74 1.94 3.05 3.76z"/>
        <path fill="#AB9BB6" d="M233.93 108.24c-1.98 2.48-3.9.82-5.44-.36-3.8-2.86-7.6-5.78-10.9-9.08-1.3-1.24-2.2-.92-3.4-.8-.7-.4-.9-1.08-.9-1.83.4-2.68 2.1-4.7 3.7-6.73 2.2-1.58 3.7-4 5.9-5.57 3 7.33 6 14.67 9.1 21.98.3.88 1.1 1.6 1.7 2.4z"/>
        <path fill="#6F5481" d="M198.2 85c1.27-.13 2.5.24 2.4-2.06-.1-2.54 1.07-5.1 1.13-7.7.07-3.3 4.1-.24 4.4-3.18.88-8.23 6.08-15.54 5.27-24.13-.2-2.13 2.25-1.5 2.56-2.92 1.03 2.2 1.17 4.5 1.2 6.8-.02.3-.06.5-.1.7-3.33 13.2-5.38 26.6-9.22 39.7-.87 1.9-2.1 2.8-4.1 1.5-1.86-1.6-2.1-4.2-3.7-6-.5-.9-.85-1.7.17-2.5z"/>
        <path fill="#9F96A5" d="M318.16 318.05c-.3 2.63-1.47 4.9-2.88 7.07-1.8 1.15-3.26.1-4.53-.9-7.3-5.7-14.83-11.13-21.93-17.1-.2-1.6 1-2.17 2.03-2.88 1.6-.85 3.25-1.4 5.08-1.33 4.8.5 7.6 4.4 11.23 6.9 3.8 2.6 7.23 5.7 11 8.3z"/>
        <path fill="#99939D" d="M306.15 342.02c-.4 1.72-1.48 2.98-2.8 4.07-1.62 1.6-3.5 2.5-5.83 1.9-10.97-2.6-22-4.9-33.2-6.3-1.8-.3-3.55-1-4.7-2.6-.4-.8-.48-1.5-.32-2.4.25-.8.76-1.4 1.46-1.9 2.77-1.2 5.65-.7 8.33 0 10.1 2.4 20.5 3.7 30.7 5.9 2.1.4 4.3.1 6.3.9z"/>
        <path fill="#ABA4B0" d="M275.87 311.93c6.8 2.46 11.6 7.86 17.37 11.87 5.65 3.93 11.13 8.1 16.7 12.17l-1.8 3.18c-1.47.17-2.88 0-4.27-.48-9.5-6-18-13.3-26.93-20.07-2.6-1.98-6.08-2.44-8.14-5.17 1.96-2.37 4.25-3.22 7.07-1.5z"/>
        <path fill="#97909A" d="M304 338c1.45.14 3.1-.45 4.13 1.15-.34 1.18-.9 2.2-1.98 2.87-2.1 1.26-3.97.84-6.4.27-7.82-1.9-15.84-3-23.8-4.3-4.98-.9-9.78-3.1-15.04-2.1-.8-.8-.9-1.8-.9-2.9.3-2.2 1.3-4 3.2-5.2 3.3-.4 6 1.6 8.8 2.8 4.1 1.7 8.3 3.2 12.5 4.4 3.5.9 7 1.3 10.6 1.9 3 .9 6.1.3 9.2.9z"/>
        <path fill="#9D97A0" d="M259.9 338.97c3.12 1.63 6.54 2.23 9.97 2.5 9.1.72 17.9 3.06 26.7 5.26 2.36.58 4.58.18 6.78-.64-.58 1.6-1.6 2.9-3.03 3.9-1.4 1.2-2.82 2.4-4.86 1.9-11.63-2.9-23.53-4.3-35.26-6.6-.65-.2-1.25-.5-1.84-.8-.8-.5-1.1-1.3-1.17-2.2.2-1.7.4-3.4 2.7-3.6z"/>
        <path fill="#755A87" d="M72.82 276.26l.35-1.23c6.3.02 11 3.7 15.65 7.23 1.85 1.4 3.58 2.92 5.64 4.03.73.3 1.75 1.2 2.23.9 6.3-3.6 7.3 2.5 10.1 5.4.4.4 1 .8 1.5 1.3.5 4.5-.6 5.9-4 4.2-10.1-4.8-20.4-9.4-29.4-16.1l-1.8-2.1-.4-3.7z"/>
        <path fill="#A09BA3" d="M257.9 343.97c9.1 1.36 18.16 2.94 27.23 4.32 4.98.7 9.82 4.1 15.2 1.7-.82 2.1-2.35 3.6-4.12 5-6.1.8-11.9-1.4-17.9-2.3-6.3-1-12.6-2.5-18.9-3.2-1.3-.2-2.6-.5-3.5-1.5-.6-2.1-.3-3.7 2.2-4.2z"/>
        <path fill="#C7C0CB" d="M107.84 126.85c.3-1.5.92-2.85 2.08-3.9 2.4-.57 3.07 1.47 4 2.83 2.78 4.03 5.38 8.18 7.78 12.46.53 3.44-1.62 6.34-1.93 9.62-1.45 3.15-3.23 2.8-5.03.36-2.53-3.4-4.78-7-6.66-10.8-.9-3.5-.2-7.05-.24-10.57z"/>
        <path fill="#A6A1A8" d="M295.3 356.1c-.88 2.14-2.44 3.66-4.36 4.87-6.58.66-12.45-2.88-18.88-3.17-7.04-.3-13.9-2.7-21.06-1.6-1.43-2.3.5-3.8 1.26-5.6.5-.65 1.17-1.05 2-1.16 10.5.35 20.74 2.46 30.95 4.6 3.4.7 7 .12 10.1 2.07z"/>
        <path fill="#DCD9DD" d="M254.88 158.1c.73-3.68-.75-7.6 1.07-11.17 1.04 6.6 5.04 8.78 11.36 7.77 1.3-.2 2.6.57 3.7 1.3 2.6 2.84 5.4 5.44 7.1 8.98-5.4 2.77-10.8 2.05-16.3.1l-6.7-6.12c-.2-.16-.3-.34-.2-.54.1-.2.1-.3.2-.3z"/>
        <path fill="#A9A4AB" d="M250.94 355.98c2.5-1.58 5.08-1.67 8.02-1.2 10.74 1.67 21.64 2.47 31.98 6.2-.8 1.52-1.98 2.64-3.68 3.13-2.16.8-4.23.1-6.34-.3-10.08-2-20.26-3.3-30.5-4.2-.52 0-1-.1-1.45-.3-.54-.6-.64-1.3-.44-2.1.53-.9 1.23-1.5 2.4-1.1z"/>
        <path fill="#CAC3CE" d="M120.97 138c-3.58-2.92-4.76-7.5-7.57-10.94-1.14-1.38-1.56-3.4-3.48-4.1.8-2.93 2.1-5.6 3.98-8 2.3-2.54 3.38-.35 4.42 1.25 1.96 3 3.62 6.3 6.4 8.7-.33 4.7-.27 9.4-3.75 13.2z"/>
        <path fill="#A39AA8" d="M288.93 306.96c7.52 3.63 13.42 9.5 20 14.46 1.96 1.48 3.76 3.27 6.35 3.7-.35 1.8-.87 3.55-2.26 4.9-8.93-6.74-17.85-13.5-26.8-20.2-.64-.46-1.52-.57-2.28-.85.83-2.72 2.7-2.92 5-2z"/>
        <path fill="#8C7897" d="M110 228c.14 2.86.08 4.67-3.64 2.37-8.95-5.55-18.25-10.52-27.14-16.13-3.14-1.98-1.78 2.03-3.27 1.78-.07-1.76.08-3.48 1.04-5.02 1.9-2.34 3.4.03 4.9.64 9.3 3.96 17.1 10.47 25.8 15.5.7.42 1.5.58 2.3.86z"/>
        <path fill="#6C5081" d="M217 61c-.27 6.02 3.48 11.06 4.17 16.84.37 1.05.56 2.1-.1 3.1-.34.25-.73.36-1.16.32-1.6-.42-2.6.7-3.6 1.7-2.4 1.62-3.9 5-7.7 3.7-.9-5.68 2.2-10.55 3.4-15.8.8-3.4.3-7.5 3.8-10 .5-.27 1-.22 1.5.14z"/>
        <path fill="#978C9E" d="M322.05 306c-.1 2.52-.97 4.8-2.1 7-1 1.83-2.6 1.56-3.82.62-5.24-4.03-11.16-7.23-15.4-12.47-.15-1.5.96-2.1 1.97-2.78 1.05-.58 2.14-1.04 3.32-1.26 4.06-.3 6.42 3 9.45 4.7 2.24 1.3 4.4 2.8 6.58 4.3z"/>
        <path fill="#D9D5DA" d="M261.78 165.1c5.43-.05 10.85-.1 16.28-.12 2.7 2.14 4.68 4.83 6.04 7.98-4.24 2.74-8.66 3.25-13.3 1.12-3.3-2.7-6.34-5.67-9.02-9z"/>
        <path fill="#E3E2E3" d="M255.04 385.02c-1.93 1.98-4.57 2.3-7.04 2.98-1.54.77-3.26.98-4.68.14-5.04-2.98-9.97-6.12-13.58-10.9.83-1.72 2.46-2.45 4.04-3.23 3.02-1.4 5.52-.2 7.78 1.7 4.18 3.6 8.82 6.5 13.48 9.4z"/>
        <path fill="#917F9B" d="M111 219c-7.7-2.06-13.94-6.68-20.35-11.17-3.36-2.36-6.87-5.46-11.66-4.83-.2-1.46.3-2.77 1-4 .4-.6.6-1.36 1.5-1.37C87.3 200 93 202.17 97.4 207c3.58 3.83 9.4 4.63 13.68 7.72.3.46.3.88-.1 1.28v3z"/>
        <path fill="#AEAAB0" d="M249.03 359h.97c5.66.8 11.28 1.54 16.9 2.9 4.1 1 8.5 2.34 12.92 2.4 1.7 0 3.33.12 4.35 1.76l-.2.9c-1.44.86-2.8 1.88-4.5 2.2-3.98.47-7.88.16-11.7-1.2-5.2-1.84-10.76-1.43-16.1-2.47-1.94-.4-3.95-.5-5.53-1.9-1.5-3.1.13-4.2 2.9-4.7z"/>
        <path fill="#CFCAD2" d="M116.9 108.95c.84-2.9 2.13-5.6 4.05-7.96.76-1.1 1.62-1.6 2.77-.5.96.8 1.63 1.9 2.38 3 .9 1.2 1.1 3.3 3.43 2.9.08 4.9-1.07 9.5-4 13.5-2.57.7-3.04-1.6-3.92-3-1.6-2.7-3.9-5-4.7-8.1z"/>
        <path fill="#30074F" d="M184.96 14.94c2.24 3.43.83 7.24 1.1 10.87.22.3.4.6.37.9-.2 2.4 1.24 5.7-.68 7-2 1.4-3.84-1.8-5.86-2.4-2.5-.8-5.5-.2-5.9-3.8-.1-.7 0-1.4.2-2.1 2.4-3.1 5.7-5.4 8.4-8.3l2.3-2z"/>
        <path fill="#D1CDD4" d="M291.9 194.05c-4.57-3.73-9.04-7.58-12.93-12.04 4-2.4 8.03-2 12.05 0 3.03 2.9 5 6.5 7 10-1.72 1.6-3.65 2.7-6.1 2.1z"/>
        <path fill="#9B90A1" d="M301 301c4.83 3.66 9.67 7.3 14.5 11 1.35 1 2.66 2.03 4.46 1-.17 1.84-.7 3.54-1.8 5.04-3.5 0-5.57-2.54-8.07-4.4-4.7-3.4-8.6-7.8-14.3-9.7-.2-1.5 1-2 1.8-2.74 1-.56 2.1-1.28 3.2-.2z"/>
        <path fill="#D5D2D7" d="M291.02 182h-12.05c-3.05-2.3-5.76-4.96-8.18-7.92 4.5.47 8.8-1.1 13.3-1.12 3 2.46 5 5.7 6.9 9.03z"/>
        <path fill="#DBDADC" d="M263.07 381.03c-1.05 1.24-2.44 1.8-4 2-1.87 1.03-3.48.5-4.95-.8-2.22-1.96-4.92-3.32-7.1-5.27-3.2-2.84-6.63-4.63-11.04-3.7-.32-.4-.48-.85-.5-1.37 1.03-2.7 3.2-3.9 5.65-4.9 2.68-.5 5.08.2 7.26 1.8 4.5 4.5 10.4 7.3 14.6 12.1z"/>
        <path fill="#DFDEDF" d="M235.98 373c4.25-3.16 7.22-.34 10.57 1.97 4.07 2.8 7.33 6.96 12.5 8.06-1.04 1.25-2.44 1.8-4 2-5.54.04-8.56-4.42-12.52-7.12-2.68-1.8-4.87-4.4-8.62-2.9-.1-1.5.5-2.3 2.1-2z"/>
        <path fill="#DFDDE0" d="M271 156h-5.9c-8.98 0-8.98 0-9.15-9.07v.05c2.98-1.9 5.73-1.93 8.1 1 3.14 1.96 5 5.03 6.96 8.02z"/>
        <path fill="#AFA0B8" d="M203.85 392.93c-4.28.08-8.4 1.73-12.74 1.17-2.5-1.3-3.2-3.04-1.3-5.45 2.8-1.68 6.3-1.9 8.9-3.88.5-.17.9-.23 1.4-.18 3.4 1.9 7.5 2.4 10.3 5.4.1.5 0 .9-.3 1.3-1.7 1.7-4.1.7-6.1 1.5z"/>
        <path fill="#D2CED4" d="M128.98 106c-1.8 2.4-2.3.06-3.27-.83-1.5-1.43-1.2-5-4.7-4.18.9-3.5 2.7-6.4 5-9.1 1.1-1.5 2.2-1.5 3.2 0 1.2 1.7 2.8 3.3 3.6 5.3-.2 3.3-.4 6.6-3.6 8.7z"/>
        <path fill="#A39DA5" d="M295.3 356.1c-10.24-.14-19.98-3.74-30.15-4.52-3.73-.3-7.42-.97-11.13-1.47-.55-1.7.37-2.1 1.85-2.1 13.6 1.6 27 4.2 40.34 7.2l-.9 1z"/>
        <path fill="#ACA8AE" d="M284.17 366.06c-5.77 1.74-10.75-4.6-16.64-1.62-4.9-4.9-11.94-2.82-17.53-5.44 3.14-1.95 6.4-.26 9.38.2 9.32 1.4 18.87 1.7 27.88 4.9l-3.1 1.96z"/>
        <path fill="#E8E7E8" d="M230 377.4c4.16 2.96 8.4 5.84 12.48 8.9 1.7 1.28 3.44 1.92 5.52 1.7-1.73 1.46-3.8 1.9-6 2-2.5 1.27-4.43-.23-6.34-1.45-3.2-2.05-6.23-4.3-8.8-7.14-.58-1.6.46-2.7 1.4-3.9.55-.4 1.1-1 1.73-.1z"/>
        <path fill="#897992" d="M327.87 269.96c-.1 7.47-.84 14.85-2.7 22.1-3.6 1.16-5.35-1.46-7.34-3.6-.4-1-.06-1.85.48-2.7 1.2-1.36 2.4-2.67 3.3-4.25 2-2.9 3.9-5.8 4.4-9.4.1-.7.4-1.3.8-1.9.4-.3.8-.4 1.3-.1z"/>
        <path fill="#93879A" d="M322.05 306c-5.2.42-7.55-4.54-11.65-6.28-1.45-.62-2.6-1.92-4.4-1.72.22-2.98 2.56-3.4 4.8-3.97 5.07 1.56 9.57 3.9 12.1 8.94.1 1.13.03 2.2-.85 3.04z"/>
        <path fill="#D5D1D7" d="M131.93 97c-3.1-.37-2.07-5.66-6-5.02.87-3.44 2.74-6.33 5-9 .96-1.3 2.15-1.64 2.93-.08.65 1.3 1.86 1.77 2.75 2.7-.3 4.3-1 8.43-4.6 11.4z"/>
        <path fill="#A897B4" d="M164 391c.93-3.02-2.27-4.98-2-7.83 2.02-1.1 3.52.26 4.96 1.24 2.8 2 5.86 3.1 9.14 3.9 1.23.5 2.58.8 3.2 2.2-.4 3.9-2.92 3.4-5.53 2.7-3.45.2-6.66-.7-9.77-2.1z"/>
        <path fill="#E3E1E4" d="M147 56c5.04-9.48 12.4-17.23 19.18-25.4.35-.42 1.2-.44 1.8-.65.3.4.38.84.3 1.32-4.74 8.73-11.9 15.84-16.6 24.6-.3.37-.66.67-1.07.9-1.3.6-2.7 1.05-3.6-.76z"/>
        <path fill="#D8D6D8" d="M263.07 381.03c-5.73-2.72-10.34-6.96-15.06-11.05 3.5-1.7 6.6-.2 9.8.82 3.2 2.6 7.5 4.06 9.3 8.22-1 1.25-2.4 1.8-3.9 2z"/>
        <path fill="#EBEBEB" d="M226.85 380.94c4.14 1.67 6.8 5.45 10.73 7.45 1.44.7 2.66 1.8 4.43 1.6-2.1 1.3-4.5 1.8-7 2-5.2-.6-8.1-4.9-12-7.6-.2-.5-.3-.9-.2-1.4 1-1.6 2.2-2.5 4.2-2.1z"/>
        <path fill="#CCC6CF" d="M116.9 108.95c3.75 2.93 5.1 7.6 8.1 11.05 1.26 1.73.86 3.04-1 4-2.7 1.43-2.6-1.38-3.78-2.4-2.36-2-1.33-7.2-6.33-6.63.5-2.25 1.4-4.28 3-6.02z"/>
        <path fill="#CDC8D0" d="M291.9 194.05c2-.88 3.77-2.3 6.12-2.06 3 3.7 5.7 7.7 7.9 12-1.33 1.2-2.67.7-4.02 0l-.92-1c-.64-1.3-1.7-2.2-2.8-3.1l-6.27-5.9z"/>
        <path fill="#AEA5B3" d="M94.9 156.83c1.37-4.88 3.3-9.52 5.9-13.88 2.63-4.74 5.14-1.6 7.68.1 1.14 2.27 1 4.6.4 6.95-.9 2.06-2.5 1.3-3.68.57-3.64-2.27-5.4-.64-6.44 2.8-1.1 1.75-.92 4.5-3.83 4.8-.37-.44-.4-.9-.03-1.34z"/>
        <path fill="#EEE" d="M222.88 383.95c4.75 1.63 7.8 5.8 12.12 8.06-1.05 1.5-2.6.9-4 1-5.9 1.4-8.94-3.5-13.14-5.9.58-2.8 2.12-4 5.02-3.1z"/>
        <path fill="#8F8297" d="M322.9 302.98c-3.8-3-7.3-6.45-12.02-8.04-.24-.46-.26-.92-.06-1.4.83-1.33 2-2.17 3.56-2.45 4.3.2 7 3.2 9.8 5.9-.05 2-.22 4.1-1.28 5.9z"/>
        <path fill="#D8D5DA" d="M136.1 85.05c-1.24.6-2.13.34-2.6-1.03-.44-1.35-1.3-1.73-2.56-1.04.83-3.47 3.08-6.15 5.05-8.98 2.2-1.3 3.3.3 4.4 1.8.5 3.5-1.3 6.3-3 9.1-.5.38-.9.42-1.4.14z"/>
        <path fill="#D0CED2" d="M280.04 368.02c1.2-.7 2.5-1.12 3.93-1.05-2.9 4.43-7.7 6.36-11.93 9.05-3.5.7-5.62-.57-6.12-4.2 4.17-3.26 9.6-1.82 14.12-3.8z"/>
        <path fill="#AB9AB6" d="M173.77 393.1c2.44.16 4.45-.4 5.22-3.07 1.9-2.04 4.6-.84 6.8-1.7.9-.32 1.7-.7 2.7-.7.7.15 1.2.63 1.4 1.38-1.3 2.1.4 3.5 1.1 5.1-3.1.7-6.2.7-9.3 0-2.7-.1-5.5.6-8.1-1z"/>
        <path fill="#F2F2F2" d="M218.02 387c2.5-.45 3.74 1.64 5.5 2.7 2.35 1.42 4.38 3.6 7.5 3.3-1.4 1.66-3.33.76-5 1-5.2 1.5-8.8-.57-11.35-5 .36-1.95 1.16-3.15 3.35-2z"/>
        <path fill="#8B7D94" d="M324.2 297.06c-4.1-.3-5.87-5.26-10.2-5.06-.04-2.76 1.2-4.22 4.08-3.98 2.4 1.3 4.2 3.6 7.08 4.04-.08 1.7.1 3.48-.97 5z"/>
        <path fill="#B7B0BC" d="M107.98 151v-8c-2.27-2.6-.12-6.78-3.27-9.06.6-2.6 1.6-4.97 3.2-7.1 2.4 3.52.7 7.46 1.2 11.16 2.6 5.07 1.3 10.5 1.6 15.78-.4 2.46.5 5.2-1.5 7.34-3.1-2.68-3.4-5.28-1-10.12z"/>
        <path fill="#DCD9DD" d="M139.98 76c-1.37-.58-2.25-2.15-4-2 .9-3.15 3.04-5.52 4.98-8 1.42-1.77 2.92-2.18 4.6-.32-.9 3.96-1.65 8-5.58 10.3z"/>
        <path fill="#B3ABB8" d="M104.7 133.94c2.03-.75 3.24-.2 3.28 2.1.03 2.32 0 4.65 0 6.97-2.4.8-4.76-3.4-7.18 0 .58-3.3 2.2-6.2 3.9-9z"/>
        <path fill="#D4D2D5" d="M266 372c1.5 2.1 3.53 3.43 6.04 4.02-1.5 1.3-2.93 2.7-5 3L258 372c2.67-1.94 5.34-1.96 8 0z"/>
        <path fill="#F5F5F5" d="M214.78 388.9c3.5 2.22 6.3 6 11.22 5.1-1.4 1.66-3.3.76-5 1-4.56 1-8.7.88-11.1-4.06.1-.3.16-.58.23-.88 1.3-1.4 2.76-2.13 4.65-1.17z"/>
        <path fill="#E3E1E4" d="M264.05 147.98c-2.55-1.5-5.38-.82-8.1-1L256 137c1.9 4.24 6.38 6.6 8.05 10.98z"/>
        <path fill="#F9F9F9" d="M209.9 390.94c3.36 2.3 6.55 5.03 11.1 4.06-6.1 2.4-11.72.95-17.15-2.07 1.83-1.24 3.9-1.77 6.05-2z"/>
        <path fill="#C8C1CC" d="M301.9 204.04l4.02-.03c3 4.9 6.53 9.4 8.06 15.1l-12.08-15z"/>
        <path fill="#DFDCE0" d="M145.1 65.03l-4.14.96c1.43-3.7 3.48-7 6.05-10 1.1.6 2.1.5 3.1 0 .5 4.1-1.4 7-4.9 9z"/>
        <path fill="#E2DEE5" d="M168 30.9v-.94c4.17-5.17 9.1-9.5 14.72-13-2.17 3.07-5.06 5.45-7.76 8-1.8 2.6-2.9 6.03-6.96 5.93z"/>
        <path fill="#A08FAC" d="M220.1 81.07c1.02-.85.76-2.14 1.06-3.23 1.14 1.85 1.68 3.9 1.9 6.03-.55 3.02-2.82 4.6-5.16 6.1-1.57-3.54.04-6.3 2.2-8.9z"/>
        <path fill="#A79BAD" d="M86.88 177.97c.6-3.95 2.28-7.5 4-11.04.4-.32.83-.35 1.28-.08.46.6.56 1.28.46 2-.55 1.75-1.38 3.4-1.92 5.13-.7 1.44-1.25 2.96-2.54 4.02-.43.22-.86.2-1.28-.03z"/>
        <path fill="#60476F" d="M327.87 269.96l-.85.08c-1.24-1.34-1.02-2.7-.03-4.04 0-4.12 0-8.23.1-12.35 1.7 5.36 1 10.84.7 16.3z"/>
        <path fill="#BAB0C0" d="M92 167l-1.13-.08c.6-3.65 1.85-7.06 4.03-10.1l.14 1.2c1.17 1.42.24 2.75-.2 4.1C94 163.8 93.8 165.87 92 167z"/>
        <path fill="#A398AA" d="M86.88 177.97L88 178l.3.6c.12 2.56-1.43 4.6-2.13 6.93-.23.65-.56 1.24-1.1 1.68-.47.2-.9.1-1.26-.2.2-3.2 1.7-6.1 3.1-8.9z"/>
        <path fill="#6F5481" d="M217 61h-1c-2.95-2.63-1.75-5.77-1.1-8.84l.28-.36c1.06 2.97 1.73 6.03 1.82 9.2z"/>
        <path fill="#AFA0B8" d="M181.83 394.07c3.08 0 6.16 0 9.23-.02-3.07 1.27-6.15 1.22-9.23.02z"/>
        <path fill="#9889A1" d="M81.04 198.02l-.98.97c.05-2.2.66-4.2 1.83-6.1.3-.4.7-.4 1.1-.2.5.9.2 1.7 0 2.6-.4 1.1-1 2-2.1 2.5z"/>
        <path fill="#9A8CA3" d="M83 193c-.37 0-.74-.03-1.1-.04.17-2.16.8-4.17 1.9-6.03l1.2.06c.3.3.4.8.4 1.2-.4 1.8-.7 3.6-2.4 4.7z"/>
        <path fill="#735786" d="M74.96 282.08c.2-.72.23-2.03 1.37-1.04 8.48 7.5 19.25 10.96 28.92 16.33 3.33 1.84 2.43-1.7 2.75-3.37-.32-.63-.14-1.02.55-1.16 2.87 2.2 1.52 5.37 1.82 8.13.18 1.77.2 3.57.1 5.35-.1.58-.44.96-1 1.17-3.22-.2-6.13-1.1-8.34-3.6l-19.07-12c-2.32-3.4-6.12-5.6-7.1-9.9z"/>
        <path fill="#9E8CA9" d="M113 318v-1c-.57-.58-.6-1.25-.3-1.96.88-.8 1.84-.7 2.72-.1 6.48 4.33 13.52 6.3 21.37 5.9 4.2-.24 9.3 3.58 10.6 7.23 0 1.48-.2 2.87-1.3 4-6.1-.55-11.8-2.8-17.6-4.48-6.1-1.8-12-4-15.6-9.6z"/>
        <path fill="#A291AE" d="M144 345c-1-3.02-2.3-4.8-6.25-5.14-4.3-.35-8.25-3.86-13.03-1.36-1.52.8-1.9-.93-2.38-1.86-1.13-2.23-2.55-3.9-5.34-3.64-.97-.7-1.9-1.8-1.26-2.8 1.5-2.3 3.5.52 5.26-.2 8.76.35 17.62.36 24.44 7.25.3.7.35 1.42.26 2.16-.5 1.9-.1 4.1-1.7 5.6z"/>
        <path fill="#A08EAB" d="M145 337c-2.73.2-4.24-2.2-6.43-3.2-5.67-2.52-12.05-1.1-17.57-3.8-1.2-2.53-2.27-5.04-5.25-6.2-2.5-1-3-3.3-2.75-5.8 8.68 7.87 20 9.42 30.6 12.6 1.06.3 1.53 1.07 2.4 1.4.75 1.88.4 3.55-1 5z"/>
        <path fill="#A391B0" d="M101.13 303.94l7.88 3.1c3.6 2.56 3 6.35 3 9.96-.3 2.77.5 5.47 1.1 9.4-5.9-7-9.1-14.28-13.5-20.72-.8-1.27.7-1.5 1.6-1.74z"/>
        <path fill="#A08EAB" d="M112 317l-3-9.97 1-.06c.88-.28 1.45.2 1.97.8 1.1 2.3 2.42 4.58 1.03 7.23v2h-1z"/>
        <path fill="#FDFDFD" d="M189.02 388.1l-2.02.9c-3.66.8-7.32.73-11 .04-5.58.23-9.24-4.14-14-5.87-1.86-.46-3.13-1.7-4.25-3.16-1.03-.8-1.9-1.8-2.8-2.7l-1.05-1.2c.88-3.3 3.46-1.9 5.54-2 1.8.6 3.66.8 5.5 1.1 1.98.7 4.12.6 6.15 1 5.9 1.2 12 1.8 17.7 4 2.9 1.5 5.3 3.2 3 7-.8.8-1.7 1.3-2.9 1.1z"/>
        <path fill="#B3A3BD" d="M159.86 375.06c-1.97.44-4.24-1.02-5.97.96-.8-.47-.9-1.22-.9-2.02.6-.83 2.7-.5 1-2.88-3.6-5-7.3-10.05-9.1-16.12-1.8-1.76-.7-4-1-6 1.1-3.2 3.1-4.68 6.3-2.7 3.2 1.95 5.6-1.16 8.5-1.4 1-.07 1.8-.36 2.6.37 1.1 1.35 1.9 2.83 1.9 4.64-.9 3.5-4.7 3.8-6.6 6.2-2.4 2.8-1 5.3.6 7.7 1.8 2.8 3.7 5.4 5.1 8.4 1.3 3 .3 4.1-2.8 3z"/>
        <path fill="#B0A2B9" d="M161 346c-2.14-.27-4.16 0-5.94 1.35-1.43 1.1-3.08 1.7-4.5.35-2.93-2.74-4.68-.66-6.55 1.3v-4c.4-2-.8-4.24 1-6 .9-2.25 1.8-4.6 4.8-2.2 2.4 1.9 4.6 4.53 7 .04.4-.65 1.5-.53 2.3-.27 1.7 1.02 2.6 2.7 3.5 4.4-.2 1.75 1.4 4.05-1.5 5.03z"/>
        <path fill="#B1A1BD" d="M145 355c3.5 5.37 7 10.72 10.45 16.1 2.3 3.57-.66 2.77-2.46 2.9l-1-1c-3.5-3.3-5.7-7.16-6-12-1.2-1.86-1.1-3.94-1-6z"/>
        <path fill="#9E8BAD" d="M146 361c1.24 4.4 3.53 8.23 6 12-3.6-1.44-6.97-8.17-6-12z"/>
        <path fill="#A897B4" d="M154.94 377.22c1.27.6 2.37 1.36 2.8 2.8-1.7-.16-2.58-1.16-2.8-2.8z"/>
        <path fill="#5D446D" d="M327 266c0 1.34 0 2.7.02 4.04l-.1 1.95c-5.07.9-6.22-3.8-8.3-6.4-10.36-12.9-20.22-26.2-32.13-37.8-.9-.9-1.5-1.8-1.7-3 .1-3.7-1.3-7.5 1.2-10.9 3.5 11 13.3 17.4 19.6 26.4 3.3 4.7 7.9 8.4 11 13.6 2.5 4.2 6 8.7 10.4 11.9z"/>
        <path fill="#6F567E" d="M286 214v12c-.45.3-.9.27-1.32-.05-.45-.6-.68-1.3-.78-2.02.07-2.87-1.18-4.9-3.47-6.68-7.7-5.96-15.54-11.7-23.33-17.54-.38-.3-.67-.7-.88-1.2-.7-2-.54-4.1-.44-6.2.1-.7.32-1.5.76-2.1 1.48-1.3 2.8-.5 4 .4 7.38 5.7 14.78 11.3 22.37 16.7 1 .7 1.4 1.9 2.1 2.8l1 4z"/>
        <path fill="#593F68" d="M283 201c5.02 1.73 7.28 6.57 10.78 9.94 7.43 7.15 13.9 15.28 21.35 22.43 3.38 3.25 1.26 3.6-1.13 4.63-1.7-1.94-3.25-4.02-5.1-5.8-2.78-2.65-4.37-6.67-9.22-7.03-1.96-.14-7.3-.3-2.66-5.17 1.2-1.26-1.1-3.28-2.95-3.35-2.57-.1-3.56-.43-3.57-3.58 0-2.82-3.6-4.05-5.5-6.07-2.57-.13-2.3-2.3-2.82-3.9 0-.8.24-1.52.82-2.1z"/>
        <path fill="#6B517B" d="M283 203l2 4v3c-8.9-5.96-17.47-12.34-25.74-19.13-.6-.48-1.5-.58-2.25-.86-1.6-1.9-1.8-4.2.1-5.7 1.7-1.4 3.5.3 4.9 1.4 7 5.8 15.3 10.1 21.2 17.4z"/>
        <path fill="#452458" d="M254.88 158.1c.08.3.13.57.14.86L255 163c-1.1.53-2-.05-2.7-.72-9.75-9.32-21.26-16.67-30.14-26.96-.76-.9-1.54-1.75-2.14-2.76-1.38-2.76-3.66-5.1-4.26-8.2-.37-1.93-1.54-4.17.8-5.8.46-.13.93-.15 1.4-.05 6.33 6.2 12.92 12.2 17.76 19.7 5.73 7.3 12.44 13.7 19.16 20z"/>
        <path fill="#4B2B5F" d="M221 132c7.17 8.76 15.9 15.8 24.67 22.87 3.2 2.58 6.22 5.4 9.32 8.12v1c.5.6.5 1.3.1 2-3.5.4-5.4-2.3-7.7-4-13.9-10.4-27.5-21-41.5-31.3-.7-.5-1.3-1.1-1.6-1.9-.4-2.4.3-4.5 2.2-6.1 5.3 0 7.9 4.5 11.8 6.9.9.6 1.5 1.7 2.5 2.2z"/>
        <path fill="#654976" d="M277 189l2 5c-.7.67-1.6.78-2.24.25-7.05-5.85-15.25-10.28-21.4-17.26-.4-1-.52-2-.4-3 .56-2.8 2.23-3.2 4.3-1.7 4.52 3.2 9.33 6.1 12.75 10.7 2.5 1.3 2.9 4.3 5 6z"/>
        <path fill="#604472" d="M272 183c-4.34-3.2-8.72-6.34-13.04-9.56-1.3-.96-2.47-2.22-2.97.57-.6.4-1.1.3-1.5-.2-.8-1.2-.9-2.6-.9-3.9 0-1.4.1-2.7 1.3-3.8v-1.9c1.5 0 2.5.8 3.3 1.9 4.3 5.9 10.9 10 13.7 17.1z"/>
        <path fill="#C8C1CC" d="M298.17 199.94c1.83.23 2.8 1.24 2.8 3.1l-2.8-3.1z"/>
        <path fill="#31094F" d="M174.8 26.6c.7 1.7.73 1.52 3.5 1.82.95.1 1.8 1.3 2.67 2.05 1.36 1.18 2.77 2.25 5.1 2.88V25.8c.26.17.53.32.8.46l.2 11.54c1.16 2.3-.43 4.96.98 7.22.16.23.2.5.08.75.5 1.8-.97 1.65-1.63 1.2-6-4-12.38-7.56-17.07-13.27-.3-.35-.22-.95-.2-1.45 1.16-2.56 2.98-4.48 5.57-5.64z"/>
        <path fill="#A292AB" d="M235.72 138.15c-6.3-6-12.42-12.15-17.58-19.2 3.83-1.96 6.9.9 10.27 1.7 2.7.63 5.4 1.6 7.6 3.35l3 2c-1.1 2.5-6.7 4.23-1.4 8.04.3.2-.6 2.97-1.8 4.1z"/>
        <path fill="#745B83" d="M207 34.03c2.4 3.6-.25 6.8-1.07 9.98-2.33 9.2-3.53 18.6-5.7 27.7-.54 2.3 1.16 6.5-3.3 7.4-3.18-.8-2.63-4-3.78-6-.48-2.2-1.4-4.4-.85-6.7 3.17-6.5 4.93-13.5 5.8-20.7.36-3.1 1.14-5.7 3.9-7.5 1.15-1.9 3.3-2.6 5-3.9z"/>
        <path fill="#775F85" d="M202 37.95c-1.38 2.36-2.06 4.8-2.6 7.6-1.3 7-1.74 14.45-6.42 20.45-3.27-1.98-2.8-5.62-3.7-8.6-.77-2.63-1.42-5.34-1.4-8.14.1-.86.43-1.6 1.05-2.22 3.97-1.13 6-4.9 9.35-6.9 1.23-.73 2.06-2.13 3.7-2.2z"/>
        <path fill="#330C4F" d="M188.94 47.04l-.08 1.97c-.84 1-1.78 1.8-3.16 1.6-5.7-3.6-11.6-7-16.43-11.9-1.07-1.1-2.2-2-2.04-3.8.47-1.4.54-3.2 2.78-2.8 0 1.5.9 2.5 1.9 3.3 4.4 3.3 8.6 6.5 13.1 9.6.8.6 1.6 2.6 3.2.9l.8 1.3zm-.9-2.02c-2-2.18-.7-4.8-.97-7.22 1.3 2.27.88 4.78.98 7.22z"/>
        <path fill="#675273" d="M110.98 243.97c-.1-6.74.46-13.42 2-20 1.03.8 1.17 1.98 1.22 3.15.44 10.25 6.9 15.6 15.58 19.13 4.37 3.08 5.7 8.33 8.77 12.32 1.94 4 4.66 7.47 7.07 11.16 1.42 3.74 5.14 6.15 5.94 10.26-.08.4-.3.9-.67 1.2-4-1.1-19.5-11.8-21.7-14.9-.5-.7-.7-1.7-1.5-2-8.8-3.7-12.1-12.2-17.1-19.2-.2-.5-.2-.9.2-1.3z"/>
        <path fill="#3C1B51" d="M113.1 211.93l-.15-2.82c-.63-.8-1.45-1.8-1.02-2.6 1.9-3.6 1.1-7.8 3-11.4 10.7-.4 20.88-3.4 31.1-6.3 2.7.8 2.6 3.4 3.65 5.3.12.5.16 1 .15 1.5-5.27 2.8-7.17 9.9-13.88 11-4.45.7-8.64 2.5-13.08 3.2-4.06.6-5.02 2.6-3.6 6.2.44 3.3 2.6 6 2.68 9.4-.17 1.1-.57 2-1.8 2.3-4.9-2.6-4.92-7.8-6.54-12.1-.3-1.1.2-2.3-.5-3.4z"/>
        <path fill="#7A618A" d="M73 265l.02-9c1.95-.88 3.6.05 5.08 1.08 7.35 5.06 16.2 7.62 22.9 13.72 2.38 2.17 5.47.07 7.74 1.9 1 3.18.87 6.38.15 9.58-1.1 2.38-3.1 2.58-5.1 1.54-10.6-5.77-22-10.18-30.9-18.82z"/>
        <path fill="#80698E" d="M73.04 249c.38-3-1-6.18.96-9 2.42-2.84 4.76-.9 7.04.2 6.1 2.93 11.77 6.53 17.24 10.53 3.38 2.48 7.3 4.03 11.46 4.94.78 3.45 1.34 6.88-.8 10.1-4.67 2.05-8.02-1.67-11.06-3.6-6.54-4.13-14.2-6.43-19.88-11.93-1.4-1.34-3.1-1.63-4.96-1.25z"/>
        <path fill="#775D89" d="M73 265c2.34 1.04 4.5 2.16 6.64 3.8 7.93 6 17.24 9.8 26 14.45.6.3 1.57-.15 2.36-.25 2.14 3.33 2.14 6.67 0 10v1c-4.68-.15-4.13-5-6.63-7.08-2.7 2.6-7.52 2.5-11.53-1.93-4.68-5.2-11.03-6.9-16.67-10L73 265z"/>
        <path fill="#7D658D" d="M73.04 249c3.02-5.06 5.2.37 6.98 1.2 1.73.8 3.44 2.73 5.46 3.8 7.52 3.98 15.02 8 22.52 12 1.65 2 1.65 4 0 6-3.1 4.3-6.8 1.1-8.4-.6-5.08-5.37-12.33-6.64-18-10.78-2.5-1.82-5.23-4-8.58-4.6 0-2.35 0-4.7.02-7.03z"/>
        <path fill="#846E92" d="M74.04 233.02c.62-4.8 3.28-4.73 6.58-2.63 1.8 1.1 3.3 2.7 5.15 3.7 2.35 1.2 4.2 5 7.8 1.6 1.14-1.1 3.05.9 3.62 1.6 3.5 4.1 9 5.1 12.8 8.6 1.5 1.6.9 3.4.3 5.2-.3.7-.6 1.4-1.2 1.9-6 .4-10.3-3.7-14.7-6.5-5.6-3.6-11.6-6.5-17.1-10.2-1.4-1-2.7-2-3.5-3.5z"/>
        <path fill="#95859F" d="M83 193c.43-1.76.65-3.6 2-5 1.3-.63 2.27.2 3.12.92 6.05 5.04 13.88 7.02 20.15 11.63 1.8 1.32 2.14-.92 3.33-.85.54.16.9.5 1.1 1-.12 2.75.03 5.5-.63 8.2l-.13 1.08c-.4.62-.66 1.35-1.42 1.65-.48.13-1.04.32-1.46.12-9.58-4.65-18.74-10-27.04-16.73L83 193z"/>
        <path fill="#655372" d="M113.1 211.93c2.34 5 3.53 10.54 6.8 15.14 4.28 4.3 5.44 10.46 8.98 15.2.64 1.52 1.9 2.9 1.07 4.73-6.32.25-9.27-4.83-13.1-8.4-4.26-4.02-4.13-9.34-3.86-14.63 0-4.02 0-8.03.1-12.04z"/>
        <path fill="#826D90" d="M74.04 233.02C85.9 239.32 96.6 247.65 109 253c.53.67.53 1.33 0 2-1.3 1.1-1.88 2.16-4.4.86-8.54-4.42-15.7-11.04-24.57-14.9-2.02-.9-3.84-1.75-6.03-.96 0-2.33.03-4.65.04-6.98z"/>
        <path fill="#47265C" d="M112.07 208.9l-.14-8.9c-1.47-1.93-.32-4-.34-6l.1-2.3c0-2.84 1.2-5.54 1-8.4 0-.78.2-1.54.3-2.3.6-1.7.5-3.52.8-5.3.7-3.56 1.1-7.2 2.1-10.72 1.3-3.04.2-7.05 3.7-9.18 1.3.87 1.3 2.22 1.3 3.57-.1.52-.1 1.03-.3 1.54-.8 2.2-.5 4.5-.9 6.8-.1.5-.2 1.1-.4 1.6-.3 5.7-1 11.3-1.7 17-1.2 2.9.5 6.4-1.9 8.9l-3.1 14.1-.9-.2z"/>
        <path fill="#695079" d="M109.05 251c.88-1.55 1.1-3.24.96-5 .1-.8.2-1.57 1-2.03V245c2.4 5.14 2.1 10.35.5 15.6-1.7 1.2-1.8-.17-1.9-1.3-.3-2.76.5-5.58-.5-8.3z"/>
        <path fill="#8E7B99" d="M111 211l.94-1.02c-.22 2.02.86 4.25-.94 6.02v-1c-1.06-1.34-1.06-2.67 0-4z"/>
        <path fill="#674D78" d="M256 177c6.9 5.38 13.8 10.78 20.73 16.12.62.48 1.5.6 2.27.88 2.06 1.92 1.8 5.17 4 7v2c-8.35-6.22-16.7-12.45-25.18-18.75-1.32 2.2-.6 4.03-.8 5.76l-.02 2c-.6.4-1.1.2-1.5-.3-.5-.7-.72-1.6-.83-2.5.25-4-1.15-8.3 1.33-12.1z"/>
        <path fill="#AFA0B8" d="M236 124l-17.86-5.05c-.26-.06-.52-.1-.78-.14-3.38-1.5-4.66-5-6.86-7.6-.3-.7-.37-1.4-.28-2.1.26-1 .77-1.8 1.87-2 2.9-1.5 4.7 1.1 6.4 2.5 5.6 4.6 11.3 8.9 17.2 13 .6.4.9.9.2 1.6z"/>
        <path fill="#6D5280" d="M214.18 96.06c0 .65.03 1.3.05 1.95l-.3 2c-2.77 1.3-2.33 6-6.36 6-1.5-1.7-2.4-3.6-2.57-5.9.2-2.3 1.02-4.3 3.3-5.5 2.15-.2 4.3-.4 5.88 1.6z"/>
        <path fill="#785F8A" d="M208.22 106.04c2.06-1.9 1.7-6.04 5.72-6.07-.6 2.35-1.23 4.7-1.85 7.03-.4.67-.8 1.33-1.1 2-1.4.63-1.9-.65-2.7-1.27-.4-.54-.8-1.07-.2-1.7z"/>
        <path fill="#330F4A" d="M194.13 72.82l2.8 6.2L198.2 85c-.2.85.03 1.54.77 2.05-.3 2.52-1.73 1.35-2.58.62-2-1.73-3.6-3.84-4.9-6.2-1.2-2.15-2.6-3.94-5.5-2.24-1.1.64-2.5.5-3.3-.38-3.7-4.37-8.8-7.46-11.5-12.66 0-1.8 1.2-3.2 2-4.6 1.6-1.6 2.7-4.2 5.7-3.8 2.3 3.4 6.3 4.8 9.1 7.9 2 2.2 2.8 5.6 5.8 7z"/>
        <path fill="#70587E" d="M288.93 306.96c-1.76.44-3.57.73-5 2L282 309c-2.52 1.3-3.9-.05-5.16-2.1-2.16-3.56-3-7.66-4.82-11.38-.9-1.86-2.03-3.3-3.5-4.62-1.42-4.03-.66-8.18-.6-12.28 0-1.14.27-2.4 1.58-2.83 1.5-.5 2.15.7 2.5 1.7 2.87 8.1 8.18 14.2 15.24 19.2 2.62 1.8 3.47 5.1 3.9 8.3l-2.2 1.9z"/>
        <path fill="#735B81" d="M269 291c5.24 1.4 4.44 6.68 6.5 10.1 1.78 2.96 1.34 7.75 6.5 7.9l-6.13 2.93c-2.5.04-4.88.55-6.98 2.03-1 .9-2 .83-3 .1-1.6-2.34-.1-4.76-.3-7.13.2-2.88 1.2-5.68 1-8.62 0-1 .1-2 .4-3.1.5-1.4.6-3.1 1.9-4.2z"/>
        <path fill="#6B4E7F" d="M214.18 96.06l-5.25-1.1c-1.27-3.6 2.04-5.23 3.42-7.68 1-1.75 2.5-3.12 3.94-4.5 1-.92 1.8-2.2 3.5-1.86l.2.15-2.2 8.9-3.7 6.1z"/>
        <path fill="#35114C" d="M172 66c3.23 4.44 8.38 7.08 11.17 11.97.4.67 1.78 1.3 2.67.43 4.86-4.73 5.3 1.02 7.1 3.07 1.84 2.08 2.3 5.55 6.03 5.58 2 1.47 1.86 4.04 3.06 5.93.53 1.03 1.57 1.85 1.3 3.2-2.33 3.45-2.85 8.2-7.28 10.14-4.66-2.45-5.42-8.2-9.4-11.2-.5-6.5-5.76-10.26-9-15.1-2.57-3.8-5.88-7.12-8.12-11.22-.15-1.8.3-3.05 2.47-2.8z"/>
        <path fill="#6D5180" d="M214.9 52.16L216 61c-3 8.5-5.22 17.2-6.98 26.05-.07 2.7-.86 4.78-4.02 4.95.2-5 2.56-9.47 3.46-14.28 1.53-8.22 2.72-16.5 5.6-24.4.16-.44.56-.78.84-1.16z"/>
        <path fill="#502E68" d="M205 92c2.02-1.1 2.66-3.32 4.02-4.95 2.3-1.7 4.63-3.4 6.95-5.08.96-.26 1.3.1 1.06 1.06-2.63 4.02-6.46 7.24-8.1 11.94-1.97 1.14-2.6 3.1-3.07 5.13-.4.22-.8.2-1.2-.06-1.02-1.16-1.66-2.47-1.63-4.06l-1-3c1.4.9 2.4.6 2.97-.98z"/>
        <path fill="#6D567B" d="M269 291c-.14 1.38.46 2.95-1 4-1.24-1.13-1.34-2.64-1.38-4.18-.13-2.98-.16-5.97-.04-8.96-.1-5.33-.18-10.66.03-16 0-.32 0-.66.1-1 .5-2.63-1.2-6.55 1.9-7.56 2.6-.85 4 2.94 5.8 4.75 3.9 7.5 8.7 14.5 13.3 21.62 2.5 3.82 4.2 8 5.7 12.2 1 2.6 2.5 4.65 4.8 6.12l-2.1 1.9-4.7 1.1c-3-3.1-3.4-8.1-7.7-10.4-1.6-.9-2.8-2.4-4.9-3-4.5-1.3-2.9-6.4-5.1-9.4-1.2-1.8-2.5-3.9-4.2-6V291z"/>
        <path fill="#736978" d="M259.9 338.97l-1.98 3.04c-3.4 2.2-7.56 2.3-10.5.4-.5-1.6.08-3 .76-4.3.64-1.1 1.33-2.1 2.72-2.4 3 .6 6.34-1.1 9 1.5v2z"/>
        <path fill="#6F6575" d="M259.9 337c-2.84-1.5-6.18 1.4-8.92-1.03-1.48-2.27-.62-3.9 1.42-5.22 2.74 1.27 6.3-.62 8.63 2.25l-.12 2.97-1 1.02z"/>
        <path fill="#AFA8B3" d="M266.1 314.1c.92-.06 1.86-.1 2.8-.15 2.4-.12 4.56.46 6.5 1.97 9.52 7.4 19.07 14.73 28.6 22.1-3 1.2-6 1.7-9.02 0-9.85-6.84-18.9-14.75-28.88-21.43-.55-.6-.7-1.3-.5-2l.5-.6z"/>
        <path fill="#B2ACB5" d="M266 316c6.08 1.77 10 6.76 15.03 10.08 4.52 3 8.77 6.38 13.08 9.66.7.48 2 1 .9 2.27-3.8.1-7.5-.3-11-2-6-5.6-12.9-10-19.7-14.6-.5-2.1-.7-4.2 1.7-5.3z"/>
        <path fill="#B5B0B8" d="M264.94 321.98c1.1-.56 2.24-.64 3.26.15 5.6 4.3 11.2 8.6 16.77 12.93.1.08.15.23.23.35l-1.2.6c-7.52-1.2-14.15-4.8-20.87-8l-.52-.5c0-2.1-.6-4.5 2.4-5.4z"/>
        <path fill="#6D6172" d="M261.03 333c-1.6-.05-3.02-1.12-4.8-.28-1.43.67-3 .42-3.24-1.73-.6-.6-.8-1.4-.7-2.2.6-2.5.7-5.3 4.2-5.5 2.8.6 5 2 6.4 4.6l.1-.1-2.1 5.1z"/>
        <path fill="#766C7C" d="M248 341.98c3.3 2.18 6.6-.36 9.92.03 0 .7 0 1.4-.02 2-1.2 1.1-1.74 2.5-2.03 4l-1.85 2.2-1 .9c-3.78 3.1-5.6 2.9-9.57-1.4-.63-2.2.2-4.1 1.42-5.9.9-.8 1.57-2 3.12-1.6z"/>
        <path fill="#9E93A5" d="M119.86 155.76l-2.8 9.32c-1.54-1.34-1.33-3.15-1.35-4.9.7-4.2 1.6-8.3 3.3-12.18-.8-3.64 2.1-6.52 2-10l3.1-14c.7-1.24 1.2-2.55 1-4 1.8-4.53 3.1-9.22 4-14l3-9 4.2-11.96.9-.12c1.1.3 1.6 1.1 1.9 2.1.2 1 .2 1.97-.1 2.94-.5 1.83-1.2 3.62-1.9 5.4-1.2 2.83-2 5.8-2.9 8.74-1.3 3.1-1.7 6.46-2.9 9.6-.3.92-.6 1.83-.7 2.78-.3 1.44-.8 2.85-1 4.32-1.8 7.26-3.2 14.64-5.2 21.87-.5 1.45-.7 2.98-1.1 4.47-1.1 2.82-.8 6.16-3 8.62z"/>
        <path fill="#C3BBC7" d="M119 148c.14 4.14-1.2 8.03-2 12-1.14 1.13.14 2.97-1.35 4.22-4.12-2.16-5.2-6.3-6.65-10.22v-16c3.16 2.68 4.56 6.6 6.8 9.9 1.44 2.1 2.1 1.1 3.2.1z"/>
        <path fill="#7B7180" d="M243.98 348.98c2.57 2.62 5.4 4.17 9.03 2.02l-2 4.98-1.8 1.06c-4.3 4.7-9 5-11.9.75.6-3.8 2.9-6.4 5.4-9 .5-.3 1-.2 1.4.1z"/>
        <path fill="#7F7585" d="M238 357c1.62 5.6 5.52.66 8.2 1.66.67.26 1.93-1.04 2.92-1.62l-.1 1.96c-1 1.34-3.12 1.8-3.13 3.96-.7 2.7-2.6 4.1-5.2 4.53-3.4 0-6.2-1.3-8.2-4.1.1-3 2.2-4.7 4.1-6.6.5-.2.9-.1 1.3.2z"/>
        <path fill="#573571" d="M217.03 83.03l-1.06-1.06c1.1-1.07 1.83-3.57 3.9-1.05l-2.84 2.1z"/>
        <path fill="#695078" d="M310.94 293.98c0 .32-.03.64-.06.96-2.03.38-3.45 1.74-4.9 3.06l-2.94 1.02c-1.5.8-3.08.92-3.76-.8-.83-2.1-3-3.18-3.78-5.08-3.32-8.1-9.68-14.5-12.4-22.9-.22-1.65-.5-3.55 1.2-4.42 1.87-.94 2.86.95 4.14 1.9 3.96 2.96 5.26 7.82 8.14 11.57 2 2.6 3.63 3.6 6.56 3.3 4.1 2.7 6.3 6.8 7.8 11.3z"/>
        <path fill="#6B5379" d="M284 270l16 27.84c.72 1.27 1.9 1.12 3.04 1.18L301 301l-3.03 1c-2.77.4-4.15-.84-5.03-3.5-3.32-10.1-9.16-18.82-15.2-27.44-1.7-2.4-3.18-5.06-3.74-8.06 2.94-1.34 5 .62 7.25 1.9 1.2 1.55 1.25 3.72 2.75 5.1z"/>
        <path fill="#A398A9" d="M230 377.4c-.35.2-.7.4-1.02.6-4 .2-7.75-.75-11.27-2.65.2-1.3 1-2.1 1.9-2.93 2.6-1.47 4.3-4.42 7.6-4.75 3.1 1.03 6.7 1.1 8.8 4.3l.1 1.02c-.7.6-1.4 1.3-2.1 1.9l-3.9 2.4z"/>
        <path fill="#92829D" d="M111 211v4c-6-2.22-11.97-4.17-16.5-9.4-2.28-2.62-6.35-3.7-9.6-5.5l-3.87-2.08 1-3c8.9 3.8 16.2 10.4 24.94 14.57 1.34.6 2.47 1.5 4.03 1.4z"/>
        <path fill="#B2AFB4" d="M241 367c1.62-1.36 3.26-2.7 4.9-4.04 11.42 1.35 22.58 4.55 34.14 5.06-4.15 3.2-9.33 2.8-14.04 4-2.67-.02-5.33-.03-8-.03l-10-2.1c-2.07-1.6-4.5-2-7.05-2.1-.32-.2-.42-.5-.3-.7s.23-.3.34-.3z"/>
        <path fill="#9A89A4" d="M170 32.02l-2.05 2.86c-.86 2.84-2.78 5.06-4.37 7.46-2.08 2.9-4.06 5.86-5.94 8.9-1.26 1.64-2.22 3.45-3.1 5.32-1.03 1.2-1.5 3.38-3.88 2.2-.26-1-.33-2 .28-2.9 2.7-6.53 7.27-11.87 11.33-17.52 1.82-2.54 3.8-4.97 5.73-7.45l6.96-6-.16 1.6c-1.8 1.6-3.68 3.2-4.8 5.4z"/>
        <path fill="#9E95A5" d="M241 367l-.05.9-5.06 4.08c-2.8-1.8-6.4-1.56-8.9-3.96 0-.2.1-.43.1-.65 1.1-1.94 2.7-3.5 4.6-4.67.4-.14.8-.02 1.2.3 2.3 1.98 5 3.23 8 4z"/>
        <path fill="#AA9DB2" d="M214.78 388.9l-4.65 1.16c-3.37-1.7-7.53-1.82-10.13-5.06.6-1.76 2.06-2.2 3.64-2.53 2.05.13 3.72-.9 5.42-1.8 5.2-2.38 9.8-1.2 13.98 2.35-.04.32-.1.63-.16.93-1.96.47-3.44 1.73-4.86 3.06-1.4.1-2.42.8-3.24 1.9z"/>
        <path fill="#BEB4C4" d="M204 383.02l-4 1.98c-.34 0-.67.02-1 .03-2.37 1.67-4.74 3.3-7.87 2.03 1.97-3-.12-4.45-2.2-5.9-.4-3.77 3.03-3.72 5.02-5.1.44-.27.96-.68 1.36-.55 4.7 1.6 9.3 3.5 14.2 4.2.1.5 0 1-.2 1.4-1.7.7-3.1 2.3-5.2 2z"/>
        <path fill="#A99AB3" d="M191.13 387.06c2.83.12 5.33-1 7.86-2.03-2.1 3.5-5.8 3.14-9 3.98l-1-.9 2.1-1z"/>
        <path fill="#A69BAD" d="M209 380.96v-.94c2.48-2.62 5.13-4.9 9-5 3.8.46 7.42 1.6 10.98 2.98l-2.13 2.94-3.8 2.08c-4.6-1.5-9.1-4.3-14.05-1.02-.35-.23-.47-.46-.35-.7.1-.22.22-.34.34-.34z"/>
        <path fill="#60476F" d="M285 226.02c.34 0 .67-.02 1-.03 6.64 4.1 10.23 11.3 15.76 16.5 6.1 5.8 9.78 13.5 16 19.3 1.92 1.8 3.75 4.7 5.34 7.3.9 1.4 1.92 2.7 3.82 2.8-.32 3.9-2 7.3-4.82 10-2.84.4-4.14-1.6-5.4-3.5-5.5-8.1-10.9-16.2-17.64-23.2-.2-.3-.46-.6-.48-.9-.68-10.7-8.35-17.3-14.3-24.9-.37-1.4-.38-2.6.73-3.6z"/>
        <path fill="#664D75" d="M310.94 293.98c-3.37-3.14-4.88-7.62-7.94-10.98-3.88-4.48-7.44-9.2-10.87-14.02-.7-1-1.03-2.1-.12-3.2 2.8-.5 5.5-.2 8 1.22 1.7 1.22 2.6 2.92 3.4 4.76.7 1.6 1.7 3.08 3.4 3.33 6.6 1 9.1 6.3 12.3 10.9l-1 2c-1.7.9-3 2.3-4 3.9l-3.1 2z"/>
        <path fill="#634A72" d="M319.07 286.03c-1.16-.14-1.88-.57-2.68-1.67-2.5-3.3-4.3-7.38-9.3-7.82-5.1-.45-4.6-5.8-7.1-8.54-.2-3.1.2-6.24-2.8-8.5-1-.74-1.2-2.3-.5-3.63.9-.96 2-1.36 3.3-.87 5 4.4 8.1 10.28 12.3 15.28 3.3 3.9 5 9.12 9.7 11.8-.3 1.9-1.5 3.04-3.1 3.95z"/>
        <path fill="#AFA0B8" d="M176 389.04c3.67 0 7.34-.03 11-.05-2.45 2-5.36.5-8 1-1.1-.1-2.26.1-3-1z"/>
        <path fill="#9C8FA5" d="M150.94 55.85L151 59c.04 2.04-.9 3.88-1.27 5.83-.3.86-.68 1.67-1.08 2.48-1.07 2-2.03 4.1-2.98 6.1-1.65 2.8-2.66 5.9-3.87 8.9-1.07 1.8-.9 4.5-3.7 4.9-.4-.7-.77-1.5-1.15-2.2l3.03-8.9 5.1-10.9 4.96-9c.3 0 .6-.1.9-.2z"/>
        <path fill="#AAA0B0" d="M107.98 151c.47 3.33-1 6.85 1 10.02 1.8 2 1.5 4.2.66 6.44-.56.88-1.23.84-1.95.22-.9-3.83-3.3-6.55-6.1-9.1-1.7-1.55-3.3-3.15-3.7-5.58 2.2-6.92 2.4-6.95 9.9-2z"/>
        <path fill="#A79BAD" d="M98 153c2.95 3 5.8 6.1 8.88 8.96 1.64 1.54.88 3.34 1.12 5.04-.85.43-1.6.1-2.3-.34-3.63-2.27-7.08-4.97-11.72-4.67l1.06-4c1.85-1.2 1.4-3.7 2.96-5z"/>
        <path fill="#BFB6C4" d="M108.98 168v-6.98L109 154l6.24 9.24c1.3-.83.33-2.68 1.76-3.24l.06 5.1c-.7 3.62-1.37 7.26-2.05 10.9-1.1 1.6.1 3.62-.9 5.26 0 .6-.1 1.17-.1 1.76-1.1.73.6 4.4-2.8 2.7-.3-.3-.6-.65-.8-1.06-.4-1.48-.4-3.08-1-4.54l-.3-1.36c-.2-2.1-.5-4.14-1.2-6.16-.5-1.72-1-3.54 1.2-4.6z"/>
        <path fill="#9F93A7" d="M90 174c-.05-1.96.42-3.7 2-5 3.6-1.7 6.94-1.83 9.8 1.48.65.75 1.47 1.45 2.4 1.7 4.03 1.1 5.8 3.78 5.77 7.82h.06c1.1 1.5-.24 3.5.97 5 .66.9.9 1.82.3 2.84-2.26-.46-16.02-8.02-17.08-9.65-1.12-1.8-3-2.7-4.22-4.2z"/>
        <path fill="#A398AA" d="M109.97 180c-.74-3.1-2.7-4.76-5.58-6.3-4-2.16-7.3-5.84-12.4-4.7v-2c.4-1.77.6-3.6 1.9-5 6.5-3.6 9.5 2.88 14 5l.9 1c-1.7 4.17 2.3 7.86 1 12z"/>
        <path fill="#9D90A5" d="M90 174c2.24-.23 4.06.73 4.76 2.72.98 2.76 3.2 3.9 5.53 4.3 4.6.8 7.5 4 10.6 6.98.6.56.8 1.28.7 2.08-.2.5-.4.93-.8 1.25-4.4.03-7.7-2.65-11.1-4.6-4.3-2.38-8.2-5.4-11.8-8.73.1-1.58.7-2.98 2-4z"/>
        <path fill="#9A8CA3" d="M88.02 178c3.36 1.2 6.06 3.3 8.9 5.5 4.16 3.2 9.33 5.07 14.06 7.5 1.13.65 1.22 1.95 1.82 2.93l-.87 6.06H111c-2.47 1.6-4.6-.6-5.73-1.6-5.3-4.8-11.66-7.6-17.7-11-1.04-.6-1.7-1.6-2.5-2.4l2.95-7z"/>
        <path fill="#9889A1" d="M85.06 185c6.9 3.52 14.32 6.1 19.84 12.04 1.44 1.54 4.04 2 6.1 2.96-.26 1.2.7 2.92-1 3.44-1.4.45-1.53-1.47-2.4-2-2.9-1.78-5.8-3.68-8.94-4.92-5.1-2.03-9.37-5.26-13.66-8.52v-1l.06-2z"/>
        <path fill="#6F5480" d="M109.05 251c2.5 2.98-.6 7.04 1.95 10 .77.65 1.1 1.52 1.26 2.47.57 7.37.17 14.75.27 22.13-.72 7.4 1.9 14.68.78 22.1-.6.94-1.4.87-2.3.28l-1-1c-1.6-2.8-.7-5.86-1-8.8-.1-1.76.7-3.7-1-5.18v-27c1.9-3.53.7-7.33 1-11v-2l.1-2z"/>
        <path fill="#9C8AA7" d="M111 307.98l2 .06c5.2-.16 9.54 2.93 14.5 3.72 6.3 2.07 12.83 3.2 19.14 5.24 1.16.46 2.37.83 3.35 1.68.8 3.4-.7 6.18-2.4 8.93-.2.2-.4.3-.7.4-3-4.3-7.1-5.6-12.3-5.8-7.1-.3-14.3-1.3-19.9-6.6-.4-.4-1.3-.4-1.9-.6l-2-7z"/>
        <path fill="#ADA0B5" d="M159 337c-3.62 2.9-6.97 5.67-10.9-.04-1.18-1.72-1.78 1.7-3.1 2.04v-2c-.1-1.75.06-3.45 1-5-.15-1.45.33-2.75.98-4h.03c2.3-4.36 6.4-3.45 10.1-3.46 1.9 1.27 2.7 3.24 3.4 5.25 0 2.4-.2 4.9-1.4 7.2z"/>
        <path fill="#B8ABC0" d="M170.87 377.06c-2.03-.16-4.2.44-6-1 2.52-1.93.78-3.67-.16-5.54-2.2-4.5-1.6-6.43 3-9.18 2.7-1.1 5.3-2.6 8.4-1.84 1.1.48 1.9 1.3 2.6 2.26 1.2 2.77 3.5 4.76 4.9 7.4.3 1.74-.9 2.28-2.2 2.68-2.6.8-5.2 1.17-6 4.73-.3 1.62-2.7 1.05-4.3.5z"/>
        <path fill="#BBAFC2" d="M170.87 377.06c1.74-.4 4.67.98 3.73-3.14-.36-1.6 1.9-2.16 3.5-2.4 1.9-.32 3.78-.68 4.9-2.52.73-1.12 1.78-1.52 3.08-1.36 2.27 1.54 4.65 2.94 6.62 4.9.6 1.43 1.92 2.67 1.3 4.46-1.55 1.56-4.14 1.84-5.08 4.15l-18.05-4.1z"/>
        <path fill="#B6A8C0" d="M168 362c-4.4 3.12-4.67 4.4-1.06 9.76 2.04 3.02 2.32 4.64-2.07 4.3-1.7-.13-3.54.35-5-1 2.16.1 3.22-.53 1.74-2.74-1.6-2.43-3.4-4.77-4.9-7.28-1.8-3.17-4.5-6.42-.7-10.04 2.2.94 4.1 2 6.9 1.73 2.9-.27 4.8 2.15 5.2 5.27z"/>
        <path fill="#B2A7B8" d="M161 346c1.38-1.46.16-3.44 1-5 2.64-.2 4.75-1.78 7.1-2.73 2.26-.9 4.1-.75 5.7 1.15.95 1.32 1.8 2.86 3.7 2.82 5.24-.12 5.04 3.3 4.62 6.92-1.4.92-3.1 1-4.64 1.2-2.28.3-3.18 1.7-4.03 3.43-4.2 1.1-9.75-.7-11.45-3.8l-2-4z"/>
        <path fill="#B5A8BD" d="M163 350c3.6 1.26 6.72 4.27 11 3 2.77 1.73 3.97 3.9 2 7l-8 2c-2.26-1.88-3.25-6.14-7.9-3.35-1.2.72-3.05-1.97-4.1-3.65l7-5z"/>
        <path fill="#AFA4B5" d="M174 340c-2.72-3.9-5.1 1.23-7.72.28-.9 3.3-2.84.55-4.28.72-1.8-.73-2.17-2.54-3-4-.83-2.5.04-4.76 1-7 3.84-4.27 6.78-.1 10.05 1.06 2.9 1.92 6.1 3.6 6.3 7.74-.48 1-1.16 1.6-2.35 1.2z"/>
        <path fill="#5C436C" d="M257 199h.98c1.45 2.2 1.7 4.53.8 7-2.22 2.7-3.95.27-5.46-.82-9.85-7.08-19.48-14.46-29.1-21.87-8.02-6.1-16.48-11.8-23.88-18.8-.5-.5-.9-1.2-1.16-1.9-.5-1.7-.6-3.5.26-5.2 1.23-1.3 2.5-.9 3.34.3 2.1 3 5.63 4.3 7.62 7.6 2.27 3.8 7.4 4.1 10.95 6.5 1.36.9 3.1 1.4 3.77 3.1 1.3 3.3 3.6 5 7 5.6 2 .4 2.52 2.6 3.9 3.7 2.53 2.1 4.74 4.7 8.2 5.4.82.2 1.92.3 2.23 1 2.2 4.6 6.7 6.3 10.56 8.8z"/>
        <path fill="#5A406B" d="M257 199c-4.4-1.02-8.4-1.76-10.67-7.1-1-2.34-6.4-2.67-9.2-5.24-1.18-1.1-2.98-1.5-3.22-3.47 0-.2 0-.5-.1-.5-5.9-1.1-8.5-6.4-12.8-9.6-3.7-2.9-9.5-3.4-12.1-7.4-2.4-3.8-6.3-5.5-8.8-8.7-1-1.1-1-2.3-.6-3.5 1.9-1.9 3.1 0 4.2.9 15.5 12.1 31.6 23.6 47.1 35.9 1.5 1.1 2.8 3.8 5.4 1.7h1v7z"/>
        <path fill="#766083" d="M285 226.02l-.03 3.97c-.03 1.4.17 3-1.94 3.2-3.48-7.2-10.92-10-16.4-14.9-2.17-2-4.58-3.9-7.4-5-.42-.3-.75-.6-.97-1-.6-1.7-.64-3.4-.04-5.1.27-2.6 1.52-3.2 3.5-1.6 7.64 6.2 16.15 11.4 23.28 18.2v2.1z"/>
        <path fill="#735C81" d="M285 224c-7-3.16-12.13-8.93-18.46-13.03-2.2-1.42-4.05-3.38-6.14-4.97-1.15-.87-1.3.17-1.4 1l-.5.38-.5-.38c0-2.67 0-5.33-.02-8 8.23 6.13 16.4 12.32 24.7 18.34 2.5 1.8 2.38 4.16 2.32 6.66z"/>
        <path fill="#47255D" d="M211.36 110.55l6 8.26c-2.54 2.5-.74 4.9.2 7.2.87 2.2 2.27 4.1 3.44 6.1-5.5-1.7-8.83-6.7-14-9-.63-.6-.83-1.3-.83-2.1 1.15-3.7 1.4-7.9 5.2-10.2z"/>
        <path fill="#4D2E61" d="M255 166v4c-1.65 1.26-2.83.05-3.96-.84-14.66-11.52-29.5-22.8-44.55-33.8-1.3-.87-2.4-1.86-3-3.3-.4-1.4 0-2.5 1.5-3.06 11.3 6.8 21.1 15.74 31.8 23.38 6.1 4.4 12.1 9.06 18.1 13.6z"/>
        <path fill="#3F1D54" d="M205 129l-1 3c.4 2.28-.63 3.96-2.24 5.4-.83.24-1.57.1-2.2-.53-1.05-1.75-.9-3.65-.7-5.56 1.34-4.1.38-9.3 5.56-11.6 1.2-.2 2.06.2 2.58 1.3v2l-2 6z"/>
        <path fill="#563967" d="M256 177v13c-2.42 1.84-4.07-.1-5.7-1.32-12.2-9.24-24.37-18.5-36.58-27.7-4.77-3.6-9.3-7.54-14.44-10.65-.9-.62-1.2-1.54-1.32-2.57-.06-1.6.34-3 1.66-4 2.86-1.16 4.66.8 6.6 2.28 15 11.44 30.14 22.7 45.1 34.2.5.4.97.92 1.78.87 1.2-1 .4-2.4.65-3.6.07-1.3.17-2.5 1.26-3.4h1v3z"/>
        <path fill="#503163" d="M255 174v4c-.66.33-1.34.25-1.88-.16-17.04-13.27-34.8-25.58-51.35-39.5-.18-.5-.1-.94.22-1.34-.4-2.1 1-3.44 2-5 16.5 12.3 33.2 24.37 49.1 37.43.4.38 1.2.4 1.8.57v4z"/>
        <path fill="#310C49" d="M194.13 72.82c-2.1 2.2-3-.03-3.66-1.24-2.34-4.36-4.9-8.33-10.08-9.77-2.1-.5-1.2-2.4-1.4-3.8-.3-.2-.4-.5-.4-.8 0-.3 0-.5.1-.5 1.9-2.7 4.1-5.2 7.2-6.6l2.8-1c1.3 5.7 2 11.5 4.1 17l1.1 6.9z"/>
        <path fill="#351050" d="M186 50c-1.93 2.73-4.27 5.07-7 7-5.62-2.47-10.04-6.64-14.63-10.54-1.38-1.17-2.55-2.65-1.47-4.7 1.2-2.66 2.93-4.9 5.05-6.88 1.74 3.43 4.74 5.84 7.76 7.77 3.6 2.3 7 4.74 10.3 7.35z"/>
        <path fill="#674F75" d="M130 266c1.86 2.63 4.37 4.1 7.38 5.4 5.15 2.2 8.4 7.38 13.66 9.6.9-.26 1.28.27 1.55 1-1.3 2.06-1.3 2.06-4.4 1.44.5 1.6 1.9 2.65 2.7 4.06 1.3 2.4-2.8 1.05-1.8 3 .7 1.4 2.2 2.52 1.7 4.4-.1.43-.7.64-1.2.8-6.4-2.5-13.2-4.3-16.7-11-1.4-2.63-3.9-4-5.5-6.32.4-4.1-3.7-5.65-4.9-8.8-.7-2.1-.5-3.9 1.7-4.94 2.1-1.02 4.1-.9 5.5 1.36z"/>
        <path fill="#422B51" d="M151.03 280c-1.84-3.45-5.28-5.9-6.13-9.96 4.88-2.2 10.16-3.35 14.98-5.72 7.5 1.02 14.7 3.56 22.2 4.65 2.6.37 3.25 2.1 1.2 4.2-6.12 1.08-11.8 3.75-18.18 4.2-3.33.24-6.88 1.3-10.2 2.44-1.28.5-2.55.8-3.87.2z"/>
        <path fill="#432D52" d="M151.03 280c1.4-1.38 4.3-.1 4.96-3.1.2-.98 1.6.05 2.4.53.5.32 1 .7 1.5 1.06-.2-4.9 4.1-2.6 5.3-2.4 6 .7 10.7-4.4 16.7-3.1.3 3.7-3.1 5.4-4.4 8.2-1.3 1.6-2.8 3.1-4.4 4.4-4.9 4.3-10.6 4.2-16.5 3-3.1-1.1-3.8-4-4.7-6.6l-1-1.1v-1z"/>
        <path fill="#685176" d="M130 266c-5.42-1.8-6.88-.83-6 4-3.25 2-5.48-.48-7.84-1.92-2.07-1.27-3.6-3.23-5.16-5.08v-18c4.16 2.57 5.3 7.45 8.33 10.9 2.4 2.7 4.25 5.84 8.3 6.6 1.4.3 2.34 1.8 2.37 3.5z"/>
        <path fill="#412850" d="M159 265c-.18 1.98-.98 2.9-3.25 2.62-1.9-.25-3.76 1.2-5.8.7.2 6.12-3.85-.3-5.05 1.72-2.93-3.3-5.66-6.72-7-11.02 2.45-.35 4.3-1.8 6.08-3.36 2.3-.26 3.84 1.33 5.62 2.34 2.72 2.1 5.97 3.3 8.82 5.18.52.5.95 1.03.58 1.8z"/>
        <path fill="#3F2550" d="M144 256c-1.17 2.74-2.46 5.24-6.1 3.02-3.55-3.4-4.95-8.24-7.95-12.02l-1.9-4c.74-.8 1.7-1 2.73-.9 1.52.3 2.62 1.22 3.58 2.36 1.4 2.33 3.34 4.2 5.3 6.04 1.22 2 4.6 2.32 4.34 5.5z"/>
        <path fill="#3E2051" d="M118 216c-1.63-6.2-1.63-6.2 4.63-7.74 4.44-1.1 8.88-2.22 13.33-3.25 3.14-.7 6.26-1.2 6.4-5.5.05-1.5 1.48-1.8 2.85-2.2 1.5-.3 3.7.3 3.8-2.3 4.3 1.2 3.8 5.1 4.7 8.2-2.7 6.3-8.1 8.7-14.4 9.6-5.6.4-11.1 1.4-16.6 3-1.5.5-3 1.7-4.6.3z"/>
        <path fill="#412353" d="M118 216c6.8-2.45 13.68-4.32 21-4 2.93-.4 4.2 1.2 4.58 3.83-2.87 4.47-6.2 8.3-11.76 9.55-3.02.67-6.04 1.46-8.82 2.93-2.32-.1-.93-2.4-2-3.3l-3-9z"/>
        <path fill="#3A184F" d="M116 195c.44-3-1-6.2 1-9 1.53 1.4 3.1 2.22 5.34 1.48 6.92-2.26 14.15-3.18 21.25-4.72 2.1 1.57 3.7 3.34 2.4 6.25-1 4.1-4.7 2.1-7 2.8-6.1 1.9-12.4 2.9-18.7 4.3-1.8.4-3.3.6-4.4-1.1z"/>
        <path fill="#675772" d="M146 189c-.47-2.28-1.42-4.33-2.96-6.1-1.78-1.12-2.17-2.78-1.8-4.73 1.28-2.53 2.72-.92 4-.06 3.55 2.4 6.44 5.8 11.02 6.5 2.1.4 1.86 2.9 2.73 4.5.8 2.1 1.6 4.2.6 6.5-3.9 1.8-7-1.7-10.6-1.5-1.9-1.1-1.5-3.6-3.1-4.9z"/>
        <path fill="#6B5B74" d="M149.02 193.97c3.88-2.05 6.8.64 9.96 2.03 1.62 1 2.02 2.64 2.28 4.36.06 3.23.76 6.4 1.02 9.62.15 1.76.15 3.58-1.25 5-2.13.68-2.63-1.16-3.58-2.3-1.78-3.07-3.76-6.05-4.46-9.62-1.6-2.55-1.6-5.94-4-8.05v-1z"/>
        <path fill="#3E2150" d="M121 225l2 3c1.5.4 2.03 1.75 2.74 2.9 1.46 3.02 2.9 6.06 4.83 8.82.47 1.05 1.1 2.08.44 3.28h-2.9c-3.3-5.02-6-10.34-8.1-15.93.9-.42 1.1-1.2 1.1-2.07z"/>
        <path fill="#39154F" d="M141.92 178.1l1.12 4.8c-.26 2.6-2.55 1.84-3.85 2-6.1.7-11.8 2.52-17.7 4.06-2.8.73-4.6.37-4.6-2.97-.1-6.1.5-12.1 2-18 .6 5.1 4.1 4.6 7.7 3.9 3.7-.7 7.4-1.6 10.4-4.3 2.8.9 2.4 3.8 3.5 5.7.8 1.4.8 3.1 1.2 4.6z"/>
        <path fill="#35114D" d="M137.02 167.96c-2.08 5.8-7.75 3.97-11.83 5.33-1.7.5-3.8.2-6.2 1.1V168c1.3-2.2-.3-4.8 1-7v-1c.4-.5.6-1.2 1.1-1.7 1.2-1.08 2.6-2.1 4.3-2.02 3.4.18 5.2-1.9 6.6-4.53.5-.08.9.06 1.3.4 1.5 3.15 2.1 6.65 3.5 9.88.4 1.97 1.7 3.93.1 5.93z"/>
        <path fill="#B8AEBF" d="M111.02 189.98l-.05-1.98.03-3c2.4 1.46 1.74-1.65 2.93-1.98l-1.05 8.92c-1.9.56-.98-1.55-1.86-1.96z"/>
        <path fill="#39154F" d="M121 159l-1 1-.14-4.24c.17-3.1.68-6.1 2.06-8.93.47.36.8.83 1 1.4.22 3.73.05 7.4-1.92 10.77zm-1 2c-.4 2.32.92 4.9-1 7 .36-2.33-.88-4.9 1-7z"/>
        <path fill="#A79AAF" d="M111.02 189.98l1.86 1.96-.08 1.98c-1.23-.58-1.8-1.57-1.8-2.9 0-.36 0-.7.02-1.04z"/>
        <path fill="#B8AEBF" d="M114.1 181.26c.07-1.8-.78-3.75.9-5.26.03 1.8.2 3.65-.9 5.26z"/>
        <path fill="#583D68" d="M200 150c5.62 1.95 9.56 6.4 14.16 9.8 13 9.6 25.74 19.53 38.56 29.36 1 .78 2.12.84 3.28.84v5.98L200 153c-.87-1-.84-2 0-3z"/>
        <path fill="#3A1751" d="M207 121l-2-1c-3.3.72-6.33.13-9.1-1.8-.58-1.2-.05-2.3.33-3.4.67-1.5 1.05-3.18 2.63-4.1 4.62 2.33 7.18-1.18 10.13-3.6.6.64 1.3 1.26 2 1.9l.3 1.55L207 121z"/>
        <path fill="#37134F" d="M209 107.1c-.4.7-.83 1.35-1.18 2.05-2.16 4.36-5.07 5.08-8.82 1.85-.18-4.85 3.03-7.85 6-11l.86.1 2.36 5.94.77 1.07z"/>
        <path fill="#381350" d="M162.9 41.75c1.6 5.44 7 7.04 10.58 10.5 1.75 1.67 4.44 2.28 5.52 4.75v1l-5 4c-3.85-1.5-6.4-5.28-11.25-5.5-2.17-.08-5.6-2.06-5.87-5.7 1.53-3.33 3.48-6.4 6.02-9.05z"/>
        <path fill="#3A1751" d="M156.88 50.8c2.45 1.93 5.13 5.67 7.32 5.4 5.37-.64 7 3.16 9.8 5.8.14 1.74-1.44 2.6-2 4-1.33.56-2 1.56-2 3-.43.26-.87.27-1.32.06-3.58-2.97-6.64-6.48-11.9-7.06-2.68-.3-4.17-3.08-2.86-6.2.5-1.96 1.42-3.66 2.96-5z"/>
        <path fill="#655172" d="M268 298c.47 3.1-.73 6-1 9-4.66 1-6.15-3.36-9.06-5.33-5.48-3.72-8.15-9.5-11.23-15-.6-1.7-2-2.6-3.6-3.25-.3-.32-.5-.7-.6-1.17 3.5-5 3.4-5.26-2.3-9.83-4.7-3.82-4.8-4.52-1.4-9 1.3-.78 2.6-1.4 4.1-.8 3.5 8.24 11 13.78 14.9 21.58 2.7 5.38 7.6 9.45 8.7 15.6.2-.9 0-2.15 1.6-1.8z"/>
        <path fill="#685375" d="M247 286c1.74.88 2.4 2.46 3.25 4.15C254 297.5 260.02 302.77 267 307l-.9 7.1.02.03c-1.83 2.2-4.04 3.26-6.93 2.37-2.7-3.47-6.1-6.46-7.2-11.08-.5-2.12-2.3-3.6-4-4.95-2.7-2.16-4.6-4.78-5.5-8.07 1.6-3.3-1.3-5.55-1.9-8.33.5-.9 1.1-1.54 2.2-1.07 1.4.93 3 1.56 4 3z"/>
        <path fill="#634E70" d="M268 298c-.54.78-1 2.1-1.63 2.2-1.12.2-1.68-1.24-1.66-2.07.1-2.34-1.5-3.55-2.9-4.85-3.7-3.44-4.4-8.76-7.9-12.6-2.1-2.3-3.7-5.46-6.3-7.77-2.8-2.5-3.9-6.1-4.5-9.9-.3-.9.3-1.3 1-1.7 1-.3 2-.2 3 .2 3.4 3.6 5 8.6 8.7 12 5.5 4.9 8.1 11.9 12.4 17.6v7z"/>
        <path fill="#37154B" d="M169 69h1c4.24.75 3.66 5.5 6.58 7.8 4.48 3.5 6.25 9.66 10.7 13.56 1.66 1.44-.47 3.06-.28 4.64.65 1.28.05 2.54-.96 2.8-2.33.6-3.1-1.8-4.62-2.95-1.1.87-.98 2.7-2.4 3.4-3.55-.35-3.22-4.2-5.33-5.87-.3-.6-.2-1.53-.6-1.84-4.6-3.46-6.8-8.57-9.4-13.4-.2-.47-.2-.93-.1-1.4 1.1-2.76 2.1-5.67 5.3-6.74z"/>
        <path fill="#38154E" d="M179 98l1.66-5.6c1.46 1.43 2.73 2.46 3.74 3.7 2.26 2.74 1.7-.82 2.6-1.1 3.36.4 4.27 3.54 5.55 5.73 1.06 1.83 2.5 3.4 3.45 5.27.84 2.44-.27 4.33-1.7 6.13-.46.24-.94.32-1.45.28-3.43-2.3-6.5-5.2-10.14-7.4-2.2-1.3-4.1-3.7-3.7-7z"/>
        <path fill="#310B4B" d="M194 112l2-6c3.34-2.64 3.54-7.5 7.03-10.02 1.26 1.05 1.8 2.44 1.96 4.03l-6 11-2 4c-3 1-3.3-.7-3-3z"/>
        <path fill="#5F4A6B" d="M268 265v17c-3.68.94-5.48-2.02-6.98-4.15-3.53-4.95-6.76-10.1-11.12-14.4-.6-.6-.7-1.47-.6-2.32.58-2.18 2.73-2.5 4.24-3.6.42-.24.86-.43 1.3-.6 1.37-.38 2.72-.92 4.16-.3 2.37 2.98 4.5 6.2 8.05 8 .4-.08.7.05.94.38z"/>
        <path fill="#695476" d="M268 265h-1c-2.46-3.35-.58-7.6-2.33-11.1-.12-.52-.1-1.02.02-1.53.2-.46.5-.83.9-1.14 3.1-1 4.4-5.54 8.6-4.52 4 4.8 6.7 10.5 10.8 15.2 1.9 2.2.5 3.6-4 4.1-2.2-1.3-4.5-2.4-7-3-2.3-1.1-3.5-3.3-5.4-5.7-1.1 2.8-.5 5.3-.7 7.7z"/>
        <path fill="#614C6D" d="M249.98 260.94c.46 3.68 4.2 4.75 6.06 7.45 3.38 4.9 5.55 11.2 11.96 13.6v9c-1.05-.1-2.28-.3-2.6-1.2-3.8-10.9-14.86-16.9-18.4-27.9-.27-.9.26-1.3 1-1.6.74-.2 1.42 0 1.98.5z"/>
        <path fill="#837C87" d="M253 329v2c-1.57 1.3-2.05 3.03-2.02 4.97L249 338c-11.42-.15-22.23 2.7-32.76 6.78-2.84 1.1-5.57 2.2-8.67 1.35-2.45-.85-4.63-2-4.8-5.02 9.8-4.3 19.86-8 30.38-10 6.45-1.2 12.9-2.5 19.47-3.2.12 0 .28.2.4.3.2.2.2.5-.02.9z"/>
        <path fill="#867F8A" d="M207.87 345.06c5.84 1.37 10.35-2.63 15.4-4.16 8.03-2.43 16.22-3.4 24.4-4.67 1-.15 1.2.95 1.34 1.78l-1 4-2 2c-2.9-1.3-5.7-.1-8.5.5-7.9 1.8-15 6.3-23.2 6.7-3-.3-4.8-2.3-6.3-4.6-.2-.4-.1-.9.1-1.4z"/>
        <path fill="#857A8A" d="M259 316c2.56.08 4.75-1.22 7.12-1.87l-.1 1.87c-1.15 1.85-1.05 3.93-1.08 5.98-1.32 1.78-1.23 4-1.9 6-2-1.33-4.03-2.65-6.04-3.97-.53-.4-1.3-.6-1.6-1.4-.6-2 .2-3.8 1.06-5.6.67-.7 1.4-1.4 2.54-.9z"/>
        <path fill="#807884" d="M255.94 322.97L257 324c-3.6-.15-2.27 3.65-4 5-13.24 2.18-26.5 4.2-39.2 8.82-3.52 1.27-6.53 4.52-10.83 3.2-2.9 0-4.24-1.47-4.12-4.34 2.03-2.45 5.02-3.3 7.8-4.18 13.3-4.13 26.55-8.6 40.6-9.7 1.83-.16 3.57-.77 5.34-1.23 1.4-.26 2.4.45 3.3 1.4z"/>
        <path fill="#8A838D" d="M213.9 350.06c8.17-.75 15.38-4.78 23.13-6.97 2.86-.9 5.7-.2 8.44-1.2.64-.3.4 1.3.52 2-1.4 1.4-1.6 3.2-2.1 5h-1c-8.1 1.8-15.7 5.6-24.1 5.9-2.4-.9-5-1.6-5-4.9z"/>
        <path fill="#340E4C" d="M121 159c-.6-3.77.97-7.32 1.06-11.02 1.05-1.62-.08-3.6.85-5.24 1.2-7.7 3.4-15.1 5.3-22.62 2.7.64 2.1 2.9 2.2 4.7.3 3.88-.4 7.8.6 11.66.6 2.17.3 4.47 1.1 6.6.2 2.95 2.2 5.9.1 8.86.5 3.53-1.1 5.53-4.6 5.27-2.5-.1-4.2 1.5-6.4 1.8z"/>
        <path fill="#4D345D" d="M132.98 103.96c.45-3.18 1.35-6.2 3-9 2.18 3.7 5.05 6.3 9.42 7.4 2.56.62 4.45 2.75 6.16 4.8.44 1.03.46 2.1.27 3.17-.77 3.03-.3 6.12-.43 9.2-.32 4.72 1.13 9.57-1 14.17-2.6-.74-2.6-.74-2.82-5.7 1.6-8.3-1.66-13.44-9.62-16.37-2.93-1.07-6.7-2.96-4.98-7.67z"/>
        <path fill="#543E62" d="M149 127c.4 2.33-.9 4.9 1 7 .64.53.94 1.24 1.1 2.04.15 1.3.08 2.54-.63 3.68l-.36.3c-5.8-5.65-13-9.6-19.4-14.4-.6-.5-.9-1.36-1.1-2.17-.1-2.47-.1-4.93-.4-7.4 0-.83.2-1.57.8-2.12 7.1 3.26 14 6.93 19.1 13.07z"/>
        <path fill="#513A60" d="M149 127c-6.2-4.58-13.2-7.98-19.05-13.07.57-3.46 1.15-6.9 3.03-9.97-.48 4.34 3.43 6.27 5.87 6.97 8.56 2.48 11.4 7.8 10.15 16.07z"/>
        <path fill="#482C59" d="M138.1 87.2c.95-1.77 1.9-3.53 2.86-5.28 3.63 2.6 6.7 5.97 11.03 7.63 2.1.84 3.1 2.88 3.1 5.27 0 .77-.2 1.52-.4 2.25-.6 1.45-1 2.97-2.7 3.58-6.1-1.9-11.2-4.95-14.3-10.82l.2-2.64z"/>
        <path fill="#4B305B" d="M137.9 89.82c4.35 3.87 8.8 7.63 14.1 10.18 1.9 2.65 1.38 4.96-1 7-4.04-2.16-8.02-4.42-12.13-6.43-2.5-1.22-3.13-3.1-2.88-5.6.2-1.85.7-3.62 1.9-5.15z"/>
        <path fill="#513A60" d="M129.14 116.06c1.75 2.5.47 5.3.86 7.94 1.96 3.04 1.5 6.4 1.35 9.73-.1 1.25-.32 2.45-1.37 3.3-2-3.4-.5-7.14-1-10.7-.28-2.06.8-4.32-.83-6.2-.4-1.54.7-2.7 1-4.07z"/>
        <path fill="#35114D" d="M122.9 142.74c-.1 1.77.76 3.7-.84 5.24l-.14-1.15c.02-1.44-.06-2.9 1-4.1z"/>
        <path fill="#8D8791" d="M218.96 354c6 .35 10.94-3.47 16.7-4.23 2.45-.32 4.74-1.8 7.33-.78l-5 8h-1c-3.8 1.7-8 1.7-12 2-2-.2-3.6-1.3-5.2-2.5-.7-.8-1.3-1.5-.9-2.6z"/>
        <path fill="#928C95" d="M224.94 358.03c3.48-1.3 7.7.77 10.78-2.32l1.3 1.4c-1.35 2-2.7 4-4.03 6h-1c-3.3-.3-6.3-1.1-7.1-4.9z"/>
        <path fill="#685076" d="M281 266c3.47-1.1 5.1-1.72 1.4-5.54-3.58-3.72-6.72-8.34-8.44-13.53-.28-.43-.3-.88-.05-1.33.8-.8 1.6-1.17 2.7-.82 5.1 1.78 6.3 7.12 9.6 10.54 2.1 2.12 3.4 4.9 5.4 7.15.9.96 1.7 2.15.6 3.53 1 3.63 3.7 6.33 6 8.82 2.3 2.56 3.8 5.18 5.1 8.18-3 1.52-4.4 1.14-6.7-2.15-3.1-4.5-5.2-9.88-9.6-13.47-.5-.4-1.2-.98-1.6-.83-1.7.67-.7 2.26-1 3.45-2.2-.42-2.4-2.34-3-4z"/>
        <path fill="#BCB5C0" d="M194 377c-.56-1.4-2.15-2.26-2-4 .74-2.6 3.12-4.1 4.63-6.07 1.27-1.64 4.44.67 6.8 1.12 3.06 1.86 5.95 3.9 9.93 1.83 1.42-.73 3.55 0 5.3.37 1.38.3 2.5 1.06 1.35 2.77l-2 2c-2.9 1.7-5.6 3.95-9 5-4.8.86-9-.53-12.7-3.67-.3-.27-1.4.4-2.2.65z"/>
        <path fill="#BAB5BD" d="M220 373.02c-1.12-4.2-5.1-.1-6.88-2.36-4.18 4.37-6.9-.18-10.12-1.66-.18-2.8 1.93-3.23 3.9-3.8 4.4.97 8.7.8 13.16-.07 2.5-.5 6.12-1.68 6.92 2.84l.03.06c-2.4 1.43-4.1 4.1-7 5z"/>
        <path fill="#3D1B53" d="M169 69l-5 7c-3.26-3.9-6.16-8.23-12.28-7.95-1.28.06-3.3-.9-2.83-3.22-.1-2.24.6-4.17 2.1-5.84 1.6-.5 1.6-2.5 2.9-3.2.8 2.8.4 5.6 5.7 5.1 2.4-.2 8.1 3.1 9.4 8z"/>
        <path fill="#B7B2BA" d="M226.98 367.97c-2.15-3.3-5.26-2.13-8-1.43-4.1 1.03-8.05 1.17-11.98-.54-3.1-2-6.78-2.2-10.2-3.15-1.36-.7-2.02-1.88-2.37-3.28-1.66-4.43.76-4.54 4-3.78 7.23-.7 14.44-1.1 21.65.1l4.86 2.1c1.7 2.5 4.93 3 7.05 4.9-1.3 2-3 3.7-5.1 4.9z"/>
        <path fill="#A597AD" d="M209 380.96V382c-1.68.23-2.88 2.88-5 1.02 1.67-.7 3.33-1.37 5-2.06z"/>
        <path fill="#614B6F" d="M283 233c.66-1 1.3-2 1.97-3 3.24 1.3 4.96 4.24 6.83 6.84 1.43 2 2.62 4 4.56 5.67 1.6 1.4 3.23 3.2 2.05 6-.9 2.3.9 4.4 1.6 6.5l-3 1c-3.1 0-4.5-2.5-5.9-4.6-3.3-4.9-8.2-8.8-10-14.9l.3-1.3c.4-.8.8-1.6 1.7-2.1z"/>
        <path fill="#644E72" d="M282 236c.06.66-.15 1.57.2 1.94 5.4 5.65 8.56 13.12 14.8 18.06.1 1.55.57 3.3 1.75 3.95 4.16 2.26 2.97 5.05 1.25 8.05-2.4-1.7-5.6-.3-8-2-1.16-4.08-4.6-6.68-6.93-9.92-2.75-3.83-4.8-8.48-9.1-11.13-.3-.35-.4-.75-.27-1.2.76-1.58 1.83-2.95 2.73-4.44 1.18-1.1 1.1-3.5 3.57-3.3z"/>
        <path fill="#452657" d="M154 95c.1-2.96-1.57-4.02-4.2-5.2-3.6-1.6-7.45-3.53-8.84-7.88.83-3.24 1.95-6.34 4-9.04 2.8 3.1 6.18 5.5 9.5 7.97 1.7 1.3 3.56 2.5 4.12 4.8.1.98-.3 1.83-.72 2.67-.78 1.42-1.24 2.95-1.63 4.5-.47 1-.48 2.5-2.23 2.18z"/>
        <path fill="#422155" d="M158 86c-1.97-3.43-5.7-4.8-8.46-7.3-1.82-1.66-4.9-2.45-4.6-5.82.5-2.27 1.5-4.3 2.96-6.1 3.78 2.83 7.5 5.75 11.15 8.72 1.7 1.38 3.2 2.82 2.9 5.28-.43 1.97-1.2 3.77-2.6 5.26-.45.27-.9.26-1.35-.04z"/>
        <path fill="#401D54" d="M161 81c.13-4.63-4.54-5.16-6.74-7.8-1.9-2.3-5.72-2.78-6.35-6.4l1-1.97c1.1 1.27 2.4 2.7 4 2.53 6.6-.66 9.4 3.32 11.2 8.64-.5 1.92.4 4.74-3 5z"/>
        <path fill="#B8AEBF" d="M111 185c-1.62-1.4-.8-3.3-.97-5 1.62 1.4.75 3.3.97 5z"/>
        <path fill="#695079" d="M111 263c3 .23 3.97 3.25 6.2 4.5 2.1 1.2 4.16 2.7 6.8 2.5 1.76 2.45 5.96 3.7 4 8 .78 1.3 1.86 2.28 3 3.26 1 .84 2.1 2 1.1 3.38-.92 1.26-2.13-.15-3.23 0 .3 1.58 3.23 2.4 1.8 4.43-1.06 1.5-2.86.94-4.3.36 1.4 1.1 1.48 2.53.7 4.12-1.28 1.5-3 1.66-4.8 1.6-5.15-1.33-7.9-5.64-11.27-9.15v-23z"/>
        <path fill="#6B507C" d="M111 286c4.68 1.28 6.24 6.83 11 8 6.17 1.15 9.2 5.75 11.77 10.8.7 1.36.3 3.5-.88 3.15-4.9-1.48-4 3.36-5.9 4.95-4.8-1.27-9.6-2.52-14-4.86-1.4-7.28-2.1-14.63-2-22.04z"/>
        <path fill="#6A4E7A" d="M127 312.9c.65-2.25.6-4.52 0-7.04 2.3-.13 4.03 2.56 6.5 1.02-2.37-5.67-6.03-10.07-11.5-12.88 1.75.1 3.46-.05 5-1 2.2 1.28 3.7 3.3 5.3 5.16 2.36 2.73 5 4.72 8.62 5.4 1.62.3 3.4.88 4.32 2.26 2 3.04 5.1 4.55 8.04 6.3-.9 5.46-1.72 6.24-6.3 5.94L127 312.9z"/>
        <path fill="#8C7898" d="M147 318.06c4.34.3 4.4-3.62 5.95-6.06-1.06-1.96.08-2.85 1.7-3.5 2.44-.03 3.2 1.92 4.22 3.57 1.7 2.75 2.88 5.88 5.8 7.76.94.6.42 1.4-.38 1.9-5.1.83-9.9-.05-14.3-2.68-1.1-.07-2.3.12-3.1-1z"/>
        <path fill="#AA9FB1" d="M150.02 319.05c5.1-.05 9.84 2.44 14.98 1.95 1.06-.1 1.35.34.88 1.3-3.05.62-5.4 3.48-8.88 2.7-3.18 1.52-7.3-.1-10 3l3.02-8.95z"/>
        <path fill="#ACA4B0" d="M157 325c2.8-1.68 5.44-3.8 9.05-3.02 1.96-1.85 4.34-1.3 6.65-1.18 3.48.94 7.08.67 10.6 1.06 1.07.2 2.03.64 2.9 1.28 2.04 2.6 5.94 3.86 5.83 8.02-4.52.33-9.03.4-13.4 2.03-2.9 1-5.6-1.7-8.63-1.2-3.36-.6-6.03-4.6-10-2-1.6-1.3-2-3.4-3-5z"/>
        <path fill="#B5ADBB" d="M198 357c-1.86-.62-3.64-1.13-3 2-3.72.84-7.67.5-10.72 3.9-1.63 1.8-4.33.64-6.28-.9-.95-.38-1.62-1.05-2-2 .4-2.63-.85-4.8-2-7 1.63-4.4 5.23-4.4 9-4 1.3-2.17 2.8-1.22 4.32-.27 1.3 2.44 3.53 3.2 6.12 3.4 2.93.25 5.13 1.3 4.56 4.87z"/>
        <path fill="#B8AEBE" d="M178 362c3.34.3 6.3.67 8.87-2.85 1.8-2.46 5.35-.76 8.13-.15l2 3c-1.5 3.1-7.32 6.27-11 6l-3 1c-2.65-1.63-4.54-3.8-5-7z"/>
        <path fill="#B9B1BE" d="M186 368c3.66-.26 5.2-5.08 9.4-4.38.42.08 1.06-1.05 1.6-1.62 3.37 1.25 7.93-.5 10 4-1.46.83-3.27 1.2-4 3-1.92-.84-4.2-.38-6.38-2.2 2.02 5.38-3.48 3.85-4.62 6.2-2.22-1.4-4.8-2.36-6-5z"/>
        <path fill="#B1AAB5" d="M187 349c-1.33-.04-2.67-.97-4 0-1.26-2.63-.54-7.2-6.1-5.43-1.63.52-2.03-2.24-2.9-3.57l2-1c3.04-5.44 7.9-4.2 12.5-3.18 2.9.64 5.55-.5 8.34-.6 1.02.23 1.8.74 2.07 1.83 1.1 1.66 2.4 2.97 4.1 3.96 1.3 1.9 2.6 3.6 4.9 4.1.1.3.1.7.1 1-.7 2-2.4 2.1-4 1.9-5.7-.9-11.3.1-16.8 1.1z"/>
        <path fill="#AEA7B2" d="M196.94 336.02c-4.96 3.2-10.06-.18-15.1.27-1.64.1-3.96-1.4-2.7 2.2.3.8-.13 1-3.14.4-1.03-3.2-3.58-5.1-6-7 .17-1.1.72-2.4 1.8-1.5 4.37 3.6 8.98.5 13.05-.1 2.76-.5 4.77-.1 7.1.5 1-.6 1.75 0 2.53.5 1.15 1.3 3.13 2.2 2.46 4.5z"/>
        <path fill="#5E466E" d="M201 164c18.92 14.45 37.62 29.17 57 43v-.02c.68.9.8 2.06.1 2.73-1.26 1.2-2.55.1-3.54-.6-5.83-4.1-11.63-8.3-17.24-12.7-10.2-7.9-20.6-15.6-30.84-23.6-2.23-1.7-3.48-1.3-5 .5-.82-.3-1.23-1-1.5-1.7-.4-2.6-.95-5.2 1.02-7.4z"/>
        <path fill="#533C62" d="M200 150v13c1.13 2.64-.7 2.77-2.43 2.68-1.52-.08-2.78-.9-3.74-2.1-.94-1.58-.36-3.12.05-4.67.8-2.3 1.6-4.7 2.3-7.1.8-1.3.27-3.7 2.82-3.8.02.9.2 1.6 1 2z"/>
        <path fill="#564164" d="M194 163c2 0 4 4.35 6 0l1 1v8c-4.16.93-5.9-2.54-8.4-4.63-.35-.68-.47-1.4-.4-2.18.2-1.1.72-1.9 1.8-2.2z"/>
        <path fill="#644E72" d="M259 212.98c.34 0 .66.02 1 .03 1.5 1.5 1.27 3.5 1.46 5.3.32 1.8.9 3.5.47 5.3-1.45 3.4-3.4 1.7-5.1.4-7.8-6.1-15.85-12-23.74-18.1-8.2-6.3-16.6-12.2-24.6-18.6-1.5-1.1-3-2.2-5-1.9-1.1-.4-1.4-1.2-1.6-2.2-.2-.9-.2-1.9-.2-2.8.1-1.8-.5-4.1 1.3-5 2.2-1.1 4.1.8 5.7 2.1 14.4 11.5 29.4 22.2 44 33.4 1.8 1.4 3.3 3.5 6.1 2.4z"/>
        <path fill="#624B6F" d="M259 212.98c-.16 1.62.16 3.96-2.63 1.86-13.7-10.34-27.35-20.73-41.1-31.02-3.77-2.83-7-6.5-11.57-8.27-1.2 1.5-.5 3.04-.7 4.45-3.6-1.87-2.55-4.4-1-7v-5c6.47 4.87 12.3 9.22 18.1 13.62 11.46 8.67 22.86 17.4 34.4 25.96.57.42 3.3 4.6 3.5-.6l1 .02v5.98z"/>
        <path fill="#796586" d="M260.04 219l-.05-6c7.6 3.12 13 9.58 19.8 13.85 2.4 1.53 3.4 3.4 3.1 6.16-.1.9-.2 1.6-1 2-7.1-4-13.2-9.3-19.5-14.4-.8-.6-1.5-1.3-2.5-1.6z"/>
        <path fill="#432754" d="M199 148c-1.6.86-.4 3.14-2 4-4.1.04-7.4-1.48-9.65-5-.4-.98-.56-2-.56-3.04.2-2.53.5-5.02 2-7.17 1.2-1.1 2.5-1.5 4-.7 2.3 1.3 4.7 1.1 7.1.8h2v1c.8 2.5-.3 4.3-2 6-.7 1.2-1.2 2.5-1 4z"/>
        <path fill="#3B1A4F" d="M196 118l9 2c-4.34 2.45-3.3 7.35-5 11-3.5.5-5.52-2.48-8.38-3.5.2-3.76 1.44-7.02 4.38-9.5z"/>
        <path fill="#3F2151" d="M192 128c3.88-2.23 5.03 2.8 8 3v6c-1.9 2.93-4.46 1.74-6.63.7-1.17-.56-2-1.56-3.38-.7-1.8-3.2-.2-5.9 1.3-8.58l.6-.42z"/>
        <path fill="#533565" d="M200 144l2-6c6.67 4.87 13.4 9.64 19.98 14.63C233.04 161 244 169.53 255 178c0 1.15 0 2.32-.02 3.48-.05 2.1-.75 2.8-2.67 1.3-15.7-12.04-31.4-24.04-47.1-36.12-1.6-1.23-3.1-2.44-5.2-2.66z"/>
        <path fill="#684F78" d="M155.03 309.02c-1.33.55-1.96 1.58-2.08 2.98-.33 0-.76.14-.97-.02-8.35-6.3-19.9-8.37-24.98-18.98.2-2.67-2.92-2.97-4.28-5.85 2.88 1.7 5.1 2.46 7.65 1.4-.6-2.2-3.8-2.74-3.32-5.36 1.75-.9 2.92.9 4.63 1-.4-2.7-3.82-3.4-3.68-6.2 2.7 1.6 4.9 3.5 6.37 6.5 3.13 6.3 10.3 7.1 15.63 10.5 3.3 2.6 4.72 6.7 7.35 9.9.2 1.9-.6 3.2-2.32 4.1z"/>
        <path fill="#654E74" d="M156.96 305c-3.76-2.33-5.17-6.3-6.96-10 .42-2.86-3.76-4-2.67-7.1 1.1-.7 1.8 1.4 3.1.5-.32-.48-.5-.9-.8-1.25-1.18-1.34-3.5-2.73-2.73-4.32 1.13-2.3 2.96.33 4.53.37.18 0 .37-.77.56-1.2 2.1 1.64 2.5 4.62 4.9 6 2.8 1.64 4.2 4.48 5.9 7.07.5.9 1.4 1.64 1.3 2.85-.8 1.26-2.1 2.12-2.8 3.44-1.4 1.44-2.4 3.2-4.6 3.64z"/>
        <path fill="#503C5C" d="M159 265c-.33-.34-.66-.68-1-1-1.2-4.28 2.7-4.38 4.66-4.57 4.3-.43 8.5-1.3 12.6-2.36 4.76-1.2 9.15 1.2 13.74.47 1.4.22 2.05 1.2 2.47 2.4.07.5.06.97-.04 1.44-.73 2.46-2.93 4.22-3.63 7 3.48.82 6.75.05 9.93.58.47.1.92.24 1.36.43 2.8 1.6 4.4 4.4 6.2 6.9 3.5 4.7 7.6 8.9 10.9 13.8-.2.9-.8 1.6-1.7 1.6-5.2-.5-10-2.4-14.3-5.2-.6-.4-.7-1.1-.8-1.8-.4-2.8-3.6-4.5-5.7-2.6-6.2 5.5-11.5 1.4-17-1.2.7-3.3 3.7-5.1 5-8 1.6-1.1 2.9-2.6-.2-2.9-7.8-.8-15.3-3.2-22.9-5.1z"/>
        <path fill="#523E5E" d="M177 281c3.72 1 7.48 1.93 11.2 3.02 2 .6 2.93-.82 4.08-1.9.9-.83 1.02-3.1 2.64-2.4 2.36.97 5.2.2 7 1.25 2.58 1.5-1.4 2.53-1.4 4.2 3.6 3 8.27 3.64 12.33 5.6 1.04.5 2.3.4 3.15-.7 3.86-.3 4.17 3.8 6.58 5.32 1.08 1.2 2.43 2.2 2.95 3.8-.04 2.7-1.77 2.5-3.4 1.7-8.13-3.7-17.03-4.9-25.35-8.2-5.63-2.2-11.8-4.2-18.22-3.6-2.62.2-4.5-.8-5.84-2.9-.14-.5-.06-1 .27-1.3.9-1.7 2.2-3.1 4-4z"/>
        <path fill="#462F54" d="M173 285c0 .33 0 .66-.02 1-.72 2.7-3.42 4-4.53 6.43-1.2 1.37-2.07 3.08-3.7 4.06-.96 0-1.92.1-2.72-.6l-5.05-8c1.98-2.1 5.6-.5 6.32-.2 4.3 1.5 6.48-2.2 9.7-2.9z"/>
        <path fill="#4C3559" d="M144 256c-1.05-2.3-4.18-2.5-5-5-1.17-1.77.03-2.56 1.42-2.72 7.2-.8 14.12-3.28 21.43-3.2.46.12.88.34 1.27.62.54.97.75 1.93 0 2.9.77-.86.5-2.36 1.64-3 4.2-1.96 8.76-2.3 13.26-2.94 1.9.2 2.63 1.85 3.77 3 1.2 1.84 2.8 3.5 3 5.86-.8 3.95-4.1 4.18-6.9 4.27-9.8.2-19.4 1-28.9 3.2l-5-3z"/>
        <path fill="#4E395B" d="M149 259c4.34-3.65 9.9-2.88 14.9-3.83 4.52-.85 9.33.03 13.9-.58 2.2-.3 5.82.4 6.2-3.6 3.8.8 4.43 3.9 5 7-1.35 1.4-3.32 1.3-4.62.7-5.2-2.5-10.28-.5-14.98.9-3.22.9-6.7-.6-9.67 1.7-1.04.8-1.6 1.4-1.73 2.6-3-1.7-6-3.4-9-5z"/>
        <path fill="#472E56" d="M163 246h-1c-1.27-3.9-3.86-4.24-7.33-3-5.48 1.95-11.32 1.93-17 2.87-1.33.22-2.62.17-3.68-.87l-3-2-1-3c-.6-.76-.7-1.8.1-2.14 3.3-1.43 6-4.48 9.3-5.4 6.8-1.86 13.8-3.02 20.9-3.3.8-.03 1.6.37 2.1 1.04 1.8 3.4 1.9 7.1 1.8 10.85-.2 1.75.1 3.6-1.4 4.96z"/>
        <path fill="#493258" d="M134 245c7.07-1.22 14.3-1.27 21.26-3.52 6.62-2.14 6.7-1.9 6.74 4.52-7.34.32-14.3 3.26-21.7 3.2-1.03-.02-1.17.97-1.3 1.8-2.13-1.6-4.5-3.02-5-6z"/>
        <path fill="#3F2351" d="M153 203.06c2.15 2.7 3.72 5.7 5.02 8.9 1.12 1.8-.23 2.55-1.52 2.78-4.45.8-8.88 2.1-13.5 1.26-.7-1.96-2.03-3.3-4-4 5.65-1.44 10.66-3.87 14-8.94z"/>
        <path fill="#422753" d="M143 216c3.45-.87 6.86-1.84 10.5-1.76 1.75.04 3.9.17 4.52-2.3l2 3c1.43.62 2.43 1.58 2.62 3.2.13 2.62 1.25 5.26-.3 7.8-6.85 1.7-13.97 1.7-20.86 3.33-3.98.93-8.15 1.12-12 2.65-1.74.7-3.23.52-4.48-.92l-2-3c1-1.85 2.3-2.5 4.64-2.67 6.54-.48 10.98-4.98 15.36-9.33z"/>
        <path fill="#4D2F5F" d="M160 200l-1.02-4c.33-2.42-.4-4.7-.98-7-.9-1.8-.1-4.13-1.8-5.68-.26-1-.23-1.96.24-2.9 2.17-.7 4.58.97 6.67-.66 2.8 7.03 5.6 14.03 5 21.84-3.3 2.72-5.5-.13-8-1.6z"/>
        <path fill="#66546F" d="M157 183c1.17 1.86 1.04 3.94 1 6-1.03-1.97-1.8-3.32-4.75-3.88-3.16-.6-5.78-3.95-8.7-6.02-.74-.54-1.12-2.38-2.63-1-1.16-1.12-1.76-2.5-1.92-4.1-.43-1.16.55-1.77 1.17-1.45 5.63 2.93 12.56 3.96 15.84 10.45z"/>
        <path fill="#4F2F62" d="M160 200c2.86-1.2 4.97 3.6 8 1 3.23 4.6 3.38 9.78 2.8 15.06-.24 2.3-.8 4.56.68 6.66.78 1.78.2 3.5-.18 5.24-.2.75-.5 1.44-.98 2.03-.43.2-.9.3-1.4.2-3.25-3.6-5.9-7.4-6.94-12.2l-1.96-3.1c1.9-3 .77-6 .2-9-.34-2-.16-4-.22-6z"/>
        <path fill="#452A55" d="M125 231c2.46 1 4.3-.9 6.4-1.3 9.54-1.74 19.16-3 28.75-4.38.57-.08 1.23.44 1.84.68 1.1 1.33 1.1 2.67 0 4-7 1-14 2-21 3.02-.5.07-1.2.03-1.4.33-2.5 3.26-6.8 3.9-9.7 6.65-2.9-2.32-4-5.67-5-9z"/>
        <path fill="#62516D" d="M157 183c-4.2-4.64-10.5-5.98-15.37-9.62-.55-.4-1.23.02-1.63.62-1-2-2-4.03-2.98-6.04l-1.08-5.85c-.76-1.7.2-3.1 1.58-1.9 5.66 4.9 13.48 6.1 18.7 11.6 1.1 2.7 2.17 5.4.8 8.3v2.9z"/>
        <path fill="#5F4D6A" d="M155 172c-2.75-4.15-8.23-3.53-11.68-6.7-1.65-1.5-3.98-2.3-5.6-4.04-1.17-1.22-1.63-.35-1.78.85-1.65-3.1-3-6.3-2.97-10-.82-2.1-.3-4.5 2-2.9 5.95 4.4 13.94 5.3 18.9 11.2 1.13 3.8 3.22 7.6 1.14 11.7z"/>
        <path fill="#5C4968" d="M153 160c-5.4-3.8-12.35-4.68-17.24-9.48-1.7-1.67-2.98-1.02-2.8 1.54l-.93-.12-1.05-8.9c-.72-1.42-1-3.1.17-4.13 1.3-1.1 2.92-.1 4.07.8 5.15 3.9 11.76 5.3 16.4 10 1.93 2.4 2 5.4 2.37 8.2-.1.9-.4 1.6-1 2.1z"/>
        <path fill="#340F4A" d="M196 118l-4 10c-3.23 2.58-3.17-.6-3.97-2.27.64-4.94 1.56-9.8 4.97-13.73h1c.72 1.27 1.03 2.97 3 3l-1 3z"/>
        <path fill="#83768A" d="M244 262l-1 1-4 1.04c-.4.32-.83.38-1.3.18-10.54-7.87-20.94-15.93-31.45-23.83-1.74-1.4-3.7-2.2-5.53-3.4-.23-.5-.36-.9-.4-1.4.32-1.9.23-4.1 2.4-5.1 1.64-.2 2.9.7 4.07 1.6 11.9 9 23.8 17.9 35.6 27.1.8.6 2 1.2 1.6 2.7z"/>
        <path fill="#675472" d="M238 263.98l1 .06c-1.9 2.85-2.48 5.4 1.5 7 .28.12.47.47.73.67 6.54 5.2 6.65 5.9 1.77 11.3l-2 1c-2.18.6-3.77-.9-4.43-2.3-2.5-5.3-5.95-9.9-9.06-14.8.2-.7.7-1.2 1.4-1.6 1.6-.5 3.3-.7 4.9-1.2 1.4-.2 2.8-.8 4.3 0z"/>
        <path fill="#675472" d="M247 286c-2.02-.08-3.12-1.4-4-3 2.14-.08 4.3-.2 4 3z"/>
        <path fill="#6A5775" d="M227.98 266.95c3.65 3.5 6.74 7.4 8.3 12.32.76 2.36 2.96 3.34 4.72 4.73 1.9 2.36 5.1 4.4 2 8-.35 1.1-1.16 1.54-2.25 1.6-5.57-2.02-6.46-8-9.94-11.8-1.5-3.33-3.2-6.17-7.3-7.35-2.5-.73-4.7-3.3-3-6.74.5-.6 1.1-1 1.8-1.3.7-.3 1.5-.4 2.3-.5 1.4 0 2.6.1 3.6 1.1z"/>
        <path fill="#6A5577" d="M241 293l2-1c2.1 3.57 5.27 6.28 7.7 9.5 3.35 4.38 5.6 9.62 8.3 14.5l-2 1c-1.03.94-2.2 1.12-3.5.76-2.4-4.94-7.45-8.3-9.17-13.28-1.27-3.67-1.9-7.73-3.33-11.48z"/>
        <path fill="#807388" d="M244 262l-41.03-31c-.8-.84-.85-1.78-.45-2.8 2.27-3.04 4.16-.63 5.83.62 7.84 5.85 15.57 11.83 23.34 17.77 4.4 3.4 9 6.6 13.4 10.2 1.2 1.1 3.4 1.7 2.9 4.1-.4.3-.7.6-1 .9h-3z"/>
        <path fill="#3A184E" d="M193 112c-.93 4.78-3.56 9.08-4 14-.43.3-.86.28-1.28 0-1.7-3-2-6.57-4.1-9.47-1.74-2.37-2.68-5.4-6.65-4.02-.9.4-1.84-.5-2.42-1.4-.3-.7-.37-1.4-.3-2.1.52-4.1.54-8.1-1.54-11.9-1-1.8-1.1-3.8 1.3-5 3.7.4 2.2 5 5 6 2.2 3.8 4.4 7.5 9.2 8.7 2.5.7 2.7 4 4.9 5.3z"/>
        <path fill="#3A1B4D" d="M174 92c-.7 1.64-1.52 3.06-.05 4.97 2.83 3.67 2.36 7.87 1.05 12.03-.93.4-1.77 0-2.04-.76-3-8.3-9.33-14.46-13.86-21.76-.08-.14-.07-.32-.1-.48l2-5c1.9-1.12 1.4-3.7 3-5 3.42 3.15 3.67 8.3 7.2 11.4 1.4 1.22 4.53 1.44 2.8 4.6z"/>
        <path fill="#776881" d="M259 256.98l-4 1c-4.9-3.15-9.63-6.52-13.43-10.93-2.47-2.88-6.05-4.1-8.77-6.5-7.36-6.5-15.75-11.57-23.7-17.24-1.22-.8-2.4-1.9-4.06-1-.48.1-.92 0-1.33-.2-.4-.6-.6-1.2-.7-2 0-.7 0-1.4.1-2.2.5-1.6.6-3.3 1.7-4.8 1.9-.9 3.2.3 4.5 1.2 16.2 12 32 24.5 48.2 36.4 1.8 1.3 3.6 2.7 2.6 5.4-.2.5-.5.8-1 1.1z"/>
        <path fill="#7C6E84" d="M204 222h1c2.93-.52 4.5 1.85 6.36 3.26 14.3 10.83 28.84 21.32 42.66 32.75-.55 2.1-3 1.6-4.04 3-.66 0-1.32 0-2 .1-9.84-8.6-20.63-15.9-30.9-23.9-3.67-2.8-7.4-5.6-10.98-8.5-1.05-.8-1.9-1.2-3.08-.5-.16-.2-.33-.3-.5-.5-.64-2.1-.1-3.9 1.5-5.4z"/>
        <path fill="#796B82" d="M254.02 258c-6.68-2.44-11.36-7.84-17-11.8-10.95-7.67-21.38-16.1-32.02-24.2.36-.86-.84-3.46 1.87-1.7 5.48 3.6 11.36 6.65 15.75 11.7.33.38.7 1.03 1.04 1.03 7.34-.1 10.1 6.92 15.04 10.35 5.83 4.05 11.68 8.82 16.3 14.6-.33 0-.65.02-.98.03z"/>
        <path fill="#5C4769" d="M259 256.98v-.94c1.96-1.1 3.15-3.7 6-3.04 3.5 3.52 1.44 7.98 2 12l-.6 1.2c-2.22-3.28-7.2-4.34-7.4-9.22z"/>
        <path fill="#74657E" d="M265 253c-1.93 1.13-3.57 2.85-6 3.04 1.3-2.35-.66-3.36-2-4.38-16.42-12.47-32.88-24.87-49.35-37.27-.8-.6-1.76-1-2.64-1.4-1.1-1-1-2.3-.8-3.6.3-1 .8-1.9 1.6-2.6 1.3-.5 2.3.3 3.2 1 15.3 11.7 31 23.1 46.1 35.1 3.4 2.6 7.6 4.3 9.9 8.3l.1.7v1z"/>
        <path fill="#867690" d="M273.98 245.98c0 .32 0 .63-.02.95-3.5.35-4.35 4.84-7.94 5.05-1.4-1.32-1.26-3.2-1.84-4.84-.2-.74-.32-1.5-.38-2.25-.1-1.3-.1-2.6.1-3.9.4-1.7 1.27-2.9 3.07-1.9 2.9 1.6 6.14 3 7 6.7z"/>
        <path fill="#74657E" d="M265 246.98c1.64 1.4.76 3.32 1.02 5L265 252c-.98-1.68-1.58-3.35 0-5.02z"/>
        <path fill="#B4AEB7" d="M187 349c3.92-2.68 8.3-3.03 12.87-2.6 2.68.25 5.45 1.32 8.06-.37 2.32.86 3.25 3.77 5.97 4.02 1.13 2.03 3.07 3.03 5.06 3.96l1.1 2c-2 2.4-5.25 1.1-6.78.7-5.32-1.6-10.2 1.7-15.28.5-.95-2.3-2.07-3.8-5.2-3.8-2.37.1-5.82-.1-5.8-4.1z"/>
        <path fill="#9E96A1" d="M253.04 317.1l3.95-.1-1.1 5.97-3-.94c-2.4-.4-4.3-1.22-4.1-4.17 1.2-1.14 2.7-1 4.1-.76z"/>
        <path fill="#7C7381" d="M249.1 318.1c.62 1.97 2.76 2.45 3.88 3.93-3.95 2.97-8.75 2.15-13.2 3.03-9.35 1.85-18.63 3.87-27.63 7.36-4.3 1.66-8.87 2.95-13.24 4.63L197 336l-3.1-3.9c8.37-5.15 17.73-7.66 27.05-10.27 2.86-1.6 6.18-.7 9.14-1.72 2.5-.5 5.2-.3 7.7-1.1 2.8-.2 5.5-.9 8.3-1.3 1 0 2-.3 2.9.5z"/>
        <path fill="#594565" d="M151 150c-5.5-3.1-11.16-5.93-16.44-9.36-3.92-2.54-3.58-.16-3.58 2.4-1.68-1.78-.72-4-1-6 0-1.02.02-2.03.03-3.04.9-.76 2-.87 2.8-.33 5.8 3.8 12.9 4.68 18.4 9.04 1.5 2.5 1.8 4.9-.1 7.3z"/>
        <path fill="#412752" d="M151 107c.58-2.3 1.3-4.57 1-7l2-3c3 6.23 7.45 11.57 10.7 17.65 1.6 2.48 2.96 5.03 2.78 8.1-1.67 2.85-1.6 5.2.66 8.04 2.3 2.9 4.13 6.4 2.95 10.6-.3 1.4-.8 2.8-2.1 3.8-4.1-1-2.8-5.4-4.9-7.7-4.5-6.8-6.9-14.6-12-21-1.5-1.9-.7-4.4-1.2-6.6v-3z"/>
        <path fill="#472E56" d="M150 136v-17c4.37-.32 5.4 3.87 6.1 6.18 1.37 4.5 4.1 8.2 5.8 12.43.67 1.8.72 3.5.33 5.3-.8 3.7-.26 7.3.38 11-.5 1.2-1.3 2.1-2.5 2.5-5-2.8-4.9-8.6-7.4-12.8-1.3-2.2-1.2-5.1-2.6-7.4z"/>
        <path fill="#442B54" d="M161 138c-1.73-4.06-5.24-7.07-5.72-12.1-.2-1.88-2.26-5.54-5.28-6.9.44-3-1-6.2 1-9 2.15 5 5.1 9.6 7.63 14.4 2.2 4.1 4.4 8.32 6.37 12.6-.94 1.9-2.3 2.18-4 1z"/>
        <path fill="#574364" d="M150 143l-20-9v-10c5.06 3.38 9.83 7.6 15.16 10.03 3.47 1.57 3.36 3.94 4.84 5.97.86 1 .83 2 0 3z"/>
        <path fill="#493158" d="M150 143v-7c4.02 4 4.2 9.88 6.94 14.52 1.06 1.8 1.42 4 3.06 5.48 1.42.97 1.9 2.3 1.48 3.96-3.93 3.45-4.77 3.26-8.47-1.96l-2-8c-.3-2.33.9-4.9-1-7z"/>
        <path fill="#3F2450" d="M164 115c-3.38-5.98-9.38-10.5-10-18v-2c1.18-.72.97-1.9 1-3 7.94 3.84 12.37 15.15 9 23z"/>
        <path fill="#83728D" d="M273.98 245.98c-2.4-1.9-4.8-3.82-7.2-5.74-1.1-.9-1.68-.62-1.8.77-.9.3-1.37-.3-1.77-.9-.6-1.7-1.2-3.4-.6-5.2.5-1.1 1.1-2.1 2.4-2.2 3.3-.3 11.6 7.3 11.6 10.6 0 .3-.3.6-.5.9v1l-2 1.1z"/>
        <path fill="#7C6988" d="M260.04 219c3.1-1.5 3.97 1.68 5.53 2.9 5.5 4.33 11.77 7.72 16.43 13.1v1l-3 4c-3.7-4.07-8.4-6.9-12.64-10.3-1.14-.9-2.24-1.4-3.56-.4-.5.02-.9-.13-1.24-.5-1.24-1.47.03-3.24-.56-4.8.1-1.75-.06-3.45-.96-5z"/>
        <path fill="#806E8B" d="M263 229.02c.3-.77-.03-2.86.9-2.12 5.2 4.16 12.3 6.2 15.1 13.1-.82 1.47-1.2 3.26-3 3.97-.57-2.64-8.16-10.23-10.67-10.6-1.25-.2-1.4 1.26-2.28 1.62l-.6-.6c-.9-1.9-.85-3.7.54-5.4z"/>
        <path fill="#3F2150" d="M164 115c1.96-9.6-4.07-16.1-9-23l2-4c1.55.76 2.67 1.96 3.37 3.5 2.12 4.68 5 8.88 8.24 12.84 2.6 3.1 4.6 6.43 5.5 10.38 1.2 2.2 2.9 4.1 3.2 6.74 0 2.06.4 4.2-1.4 5.8-3.3-.6-6.2-2.06-8.8-4.26l-3-8z"/>
        <path fill="#3D1F4E" d="M173 115c-1.7-7.6-8.22-12.2-11.6-18.77-1.43-2.75-2.9-5.5-4.4-8.23l1-2h1c5.2 2.74 6.23 8.84 10.1 12.6 3.04 2.95 4 6.9 5.9 10.4v2c.34 1.84.56 3.6-2 4z"/>
        <path fill="#897595" d="M156.96 305c1.04-1.63 2.32-3 3.97-4.02 2.33-2.6 3.65-.43 4.32 1.28 2.52 6.36 5 12.72 8.02 18.86.13.26-.07.62-.27.9l-6.95-.04L165 321c-3.45-1.33-5-4.37-6.68-7.33-.94-1.65-1.27-3.75-3.3-4.65.66-1.34 1.3-2.68 1.94-4.02z"/>
        <path fill="#5C4968" d="M186 324l-2-1c-3.45-2.07-5.55-5.47-8.15-8.36-.93-1.03-1.8-2.42-.7-3.98 2.23-.92 4.75-1.07 6.75-.1 8.86 4.23 18.75 5.05 27.76 8.74 1.38.56 2.8.98 3.86 2.1 1.16 1.27.55 2.04-.76 2.6-7.27 2.08-14.7 1.5-22.1 1.46-1.7 0-3.23-.58-4.66-1.46z"/>
        <path fill="#857192" d="M174.9 311.03c2.15 4.67 6.9 7.35 9.1 11.96-3.67-.2-7.45.7-11-1-4.66-3.8-3.3-10.8-7.9-14.8-.76-.7.3-3.1-.77-4.8-.92-1.5-1.58-2.5-3.4-1.6.2-1.9 1.15-3 3.07-3 2.87.8 4.04 3.4 5.72 5.4 1.65 2.5 4.15 4.6 5.18 7.6z"/>
        <path fill="#7A707F" d="M186 324c9.34-.1 18.7.38 28-1.03 2.33-1.8 4.67-1.76 7 0-9.37 2.1-17.9 6.7-27.15 9.1l-1.9-1.06c-2-2.3-3.97-4.6-5.95-7z"/>
        <path fill="#584566" d="M202 173c.4 2.33-.9 4.9 1 7v3c-5.7.02-9.13-4.33-13.43-7-.57-.9-.72-1.93-.67-3 .72-2.43.94-5.22 4.1-6 2.9 1.3 4.72 4.3 8 5l1 1z"/>
        <path fill="#462F56" d="M188 147c2.42 2.72 6.3 2.8 9 5 0 2.53-1.08 4.74-2 7-4.15 2.47-6.06-1.62-8.9-3.04-.54-3.24-1.1-6.48 1.9-8.96z"/>
        <path fill="#493357" d="M187 157c1.95-1.07 3.4-.02 4.67 1.24 1.02 1 1.96 1.62 3.33.76l-1 4-1 2c-2.94 1.86-4.9-.48-7.14-1.65-.53-.64-.77-1.4-.85-2.2.1-1.7.5-3.17 2-4.15z"/>
        <path fill="#4C3859" d="M186 163c2.7-.6 4.3 2.6 7 2v2l-3 6c-2.77.32-4.17-1.62-5.68-3.4-.75-2.53-.66-4.85 1.68-6.6z"/>
        <path fill="#675373" d="M261 224c1.65 1.4.76 3.3 1 4.98.73 1.1.9 2.46-.23 3.02-1.28.62-2.52-.47-3.55-1.3-6.35-5.05-13.07-9.62-19.4-14.7-9.83-7.87-20.24-14.96-30.14-22.74-.88-.7-1.78-1.56-3.1-1.16-.43.2-.86.26-1.32.23-.44-.2-.77-.53-1-.95-.18-.46-.3-.93-.38-1.4-.12-1.78-.3-3.56 1.12-4.98 1.3-3 2.64-.56 3.6.15 8.9 6.62 17.73 13.3 26.54 20.05 8.3 6.33 16.5 12.75 24.77 19.12.8.6 1.6.54 2.1-.32z"/>
        <path fill="#5D4968" d="M204 185v6c-.67 1.28-1.83 1.7-2.9.87-4.44-3.4-9.95-5.3-13.6-9.82-.47-1.53.03-2.96.4-4.4.44-.9.7-2 2.1-1.65 5 1.07 8.23 5.46 13 7 .02.82.2 1.57 1 2z"/>
        <path fill="#39174D" d="M187 157l-1 4c-3.94-.9-4.33-4.55-5.8-7.37.22-4.92 1.27-9.66 3.08-14.23.3-.44.73-.68 1.26-.74 2.6.84 2.38 3.5 3.46 5.34v3c-1.17 3.25-1.04 6.63-1 10z"/>
        <path fill="#36134C" d="M188 144c-1.3-1.5-2.78-2.86-3-5-1.94-5 .17-9.1 3-13h1c.73 1.06.74 3.22 3 2l-2 9c-1.34 2.14-1.8 4.53-2 7z"/>
        <path fill="#584564" d="M169 304l-5-6.02-1.97-2.02 2.95.03c5.15 0 10.32.7 15.25 1.9 11.25 2.6 22.05 6.9 33.34 9.6 4.38 1 8.5 3.3 12.72 5.1 2.4 1 4.5 2.5 7.2 3.1 2.1.4 4.7 1.1 4.4 4.3-2.5 1.4-5.3.9-8 1-3.9 1.1-7.3-.4-11-1.6-7-2.3-13.2-6.9-21-6.7-3.5 0-6.5-2.2-9.8-3.2-6.5-2-13.1-3.3-19.4-5.6z"/>
        <path fill="#715F7B" d="M222.04 296c-2.87-1.1-3.15-4.85-6.05-5.92-7.2-5.43-11.3-13.45-17.1-20.03 2.8-2.17 6.3-1.9 9.5-2.38 1.3 0 2.6.04 3.8.6.3.14.7.56.6.6-3.8 3.36-.1 4.78 1.7 6.7 3.1 4.65 5.1 10.02 8.9 14.24 1 1.1 1.3 2.7 1.7 4.2.2 1.1.7 2.5-.7 3.1-.9.4-1.8-.5-2.6-1z"/>
        <path fill="#988F9C" d="M209 268.96l-10.04 1.1c-.26-.1-.54-.15-.8-.17-3.28-2.3-5.95-5-7.04-9-.04-.3-.1-.7-.17-1-.35-2.4.54-3.9 2.87-4.6 6.34 1.9 10.64 6.8 15.62 10.8 1.16.9.87 2-.44 2.7z"/>
        <path fill="#786B80" d="M193.94 255.96c-1.72.82-2.1 2.63-3 4.07l-1.95-1.95-5-7.03-3.1-5.03c.7-2.8 2.2-1.02 3.5-.64 4 1.14 7 4.97 11.6 4.52.8 1.13.4 2.24-.1 3.35-.5 1.1-1.2 2.03-2.2 2.7z"/>
        <path fill="#62536C" d="M191.12 260.97c2.6 2.76 5.1 5.6 7.03 8.92h-12.7c1.32-3.8 3.4-6.4 5.67-9z"/>
        <path fill="#544160" d="M168 292c.5-2.98 2.87-4.38 5-6 2.7 3.52 6.93 2.03 10.3 2.47 5.5.7 10.58 2.34 15.74 4.06 3.94 1.3 7.83 3.35 11.86 3.7 4.54.38 8.06 2.96 12.22 4 1.55.4 1.68-.13 1.88-1.2.63-.3 1.36-.33 1.83.14 3.92 3.98 9.3 6.57 11.5 12.17-1.02 1.93-2.52 1.2-3.86.6-12.42-5.6-25.84-8-38.64-12.2-9.22-3-18.9-4.02-27.84-7.75z"/>
        <path fill="#6F5B7A" d="M238 311.02l-13-11.98c-1.28-.73-2.35-1.67-2.96-3.05.74-.6 3.07 2.1 2.36-1.6-.92-4.8-5.5-7.1-6.88-11.4-.77-2.5-2.32-4.7-3.52-7 1.2-2.2 2.8-1.3 4.2-.5 1.85 1.1 3.53 2.4 4.5 4.4 1.82 3.7 4.3 7 6.22 10.6 1.78 3.3 3.87 4 7.1 2.8 3.68 6.6 9.83 11.9 10.9 19.9.2 1.3.18 2.2-.93 3-3.9 0-6.2-2.4-8-5.4z"/>
        <path fill="#564362" d="M238 311.02c2.9 1.27 4.74 4.27 7.98 5.02 1.4.62 2.05 1.5 1 2.93L238 320c-1.87-4.22-6.52-2.76-9.65-4.62-6.53-3.87-13.64-6.5-21.2-8.1-6.14-1.32-12.05-3.73-18.13-5.44-5.7-1.6-11.2-4.56-17.45-3.2-2.77.6-3.77-3.32-6.6-2.65.13-2 1.42-3.2 3.02-4 4.3-1.9 8.2.9 12.1 1.6 11.6 2 22.4 7.4 34.3 9.2 6.6 1 12.8 4.8 19.2 7.3 1.3.5 2.4 2.6 4.3.8z"/>
        <path fill="#75667D" d="M196 250c-2.1 1.93-3.86 1.4-5.96-.35-2.55-2.12-5.47-3.84-9.06-3.63l-2.97-3.05c-3.5-2.4-5.4-5.98-6.7-9.87.1-2.2 1.2-3.08 3.3-2.22 1.2.5 2.5 1.08 3.6 1.68 5.6 2.8 10.6 6.58 16.6 8.62 1.7.58 3 2.04 3.9 3.75.5 1.53 0 2.9-.7 4.24-.4.63-.9 1.15-1.8.83z"/>
        <path fill="#493256" d="M172 233l6 9.97c-.14.45-.37 1.3-.42 1.3-4.4-.9-8.3 1.76-12.57 1.73-.4-.35-.7-.8-.8-1.32.1-5.4 2.1-10.15 4.9-14.68h.9c1.9.2 1.3 2.1 2.1 3z"/>
        <path fill="#3B1A4E" d="M164.98 245l.03 1-1.4 3.13c-1-.98-.3-2.14-.6-3.12v-5c3 .2.5 3.1 2 4z"/>
        <path fill="#37154B" d="M164.98 245c-1.6-.87-.36-3.14-1.97-4 .6-3.75-.9-7.3-1-11v-4c.8-2.66-1.2-5.3 0-7.97 2.3 4 5.4 7.6 7.1 11.97 0 5.34-3.9 9.66-4 15z"/>
        <path fill="#4B2C5F" d="M171 223c-2.45-.32-2.33-2.35-1.92-3.75 1.82-6.26-.02-12.22-1.08-18.25l-5-21c-.87-2.48-.5-4.27 2.56-4.52 3.54 4.16 8.07 7.7 8.62 13.73.1 1.3 0 2.5-.25 3.8-.22 6.4-2.5 12.8.47 19.1.86 1.7.24 3.4-.23 5-.6 1.6-.88 3.3-1.5 4.8-.37.7-.9 1.1-1.68 1.3z"/>
        <path fill="#4B315B" d="M165 176c-2.23.55-1.03 2.82-2 4-2 2.57-3.98 3.48-5.98 0-1.25-2.52-.3-5.6-2-8L153 160v-2c2.6.86 4.3 5.43 8 2 2.96 3.94 4.7 8.34 5.02 13.3 0 1.02-.23 1.97-1.03 2.7z"/>
        <path fill="#6E5F77" d="M171 223c.3-.34.63-.7.96-1.03 1.9-.98 2.58-2.82 3.27-4.66.2-.4.5-.7.82-1.1 2.66-1.8 5.07-.8 7.25.9 6 4.7 12.52 8.4 19.68 11h.04l-.05 3c-1.55 1.3-.7 3.6-1.98 5-1.3 2.2-2.8.9-4.3.5-5.7-1.5-10.3-5-15.2-8-3.2-1.9-5.9-3.7-9.2-.5-.6.6-1.5.6-2.3.2l.9-5z"/>
        <path fill="#71637A" d="M170.03 228c7.94-7.84 12.97.95 18.84 3.6 3.98 1.8 7.7 4 12.13 4.4 0 .33 0 .67.02 1 .34.32.54.7.6 1.17-.14 2.05-1 3.9-1.62 5.83-.2.43-.44.8-.77 1.14-.43.25-.84.2-1.22-.13-7.5-5.4-16.4-8.4-24.2-13.4-1.3-.8-1.6.4-1.8 1.5l-2.1-3 .2-2z"/>
        <path fill="#85798C" d="M201 238l.02-1c1.7-1.17 2.8.18 3.9 1 10.8 8.05 21.56 16.14 32.3 24.26.43.34.52 1.14.78 1.73-1.24.6-2.54 1.1-4 .9-8.98-7.9-18.65-15-28.26-22.1-1.86-1.4-3.98-2.5-4.73-4.9z"/>
        <path fill="#887C8E" d="M201 238c10.62 7.97 21.2 15.98 31.88 23.86 1.27.94 1.98 1.63 1.12 3.12-1.54.95-3.24 1.14-5 1.02-8.27-5.23-15.46-11.9-23.46-17.5-2.17-1.5-4.23-3.2-6.54-4.5l2-6z"/>
        <path fill="#8A8090" d="M199 244c.63-.13 1.52-.6 1.84-.35 9.4 7.42 19.83 13.57 28.16 22.35l-1.02.95H224c-.7-2.66-3-3.9-4.93-5.36-5.4-4.1-10.92-8.1-16.26-12.3-1.5-1.2-3.4-2.2-3.8-4.4 0-.4 0-.7.1-1z"/>
        <path fill="#6D5B78" d="M236 294c-3.23 2.7-5.08 2.34-7.55-1.6-3.08-4.9-5.07-10.56-9.3-14.73-1.4-1.4-2.87-2.85-5.15-1.67-2.16-1.38-4.38-2.7-5.27-5.4 1.17-1.28 3.33.13 4.27-1.6.57-1.03 1.5-1.57 2.6-1.9 1.92-.36 3.85-.7 5.4.97-1.02 2.82 1.1 5.32 2.72 5.48 4.96.46 6.14 4.33 8.28 7.45-2.38 3.33-.63 5.82 1.57 8.35 1.15 1.32 3.8 1.98 2.43 4.65z"/>
        <path fill="#6C5778" d="M236 294c-1.02-3.4-5.12-4.2-6.2-7.8-.83-2.75-.58-4.3 2.2-5.2 2.83 4.13 4.45 9.16 9 12 2.1 2.7 5.2 4.8 3.52 9.2-.44 1.17.9 3.9 2.18 4.67 3.98 2.42 5.5 6.02 6.34 10.22-1.08 1.2-2.6.7-3.93 1-.7.3-1.4.5-2.1.8l-1-3c-2-5.2-.9-11.8-7-15.2-2.5-1.4-2-4.6-2.9-6.9z"/>
        <path fill="#918797" d="M221 268.07c-2 0-3.98 0-5.97-.02-7.36-4.1-13.7-9.52-20-15.04l.97-3 1-1c1.4-1.2 2.82-.8 4.04.2 6.86 5.4 13.96 10.4 20.54 16.2.53.5.72 1.1.46 1.8l-1.04 1z"/>
        <path fill="#8E8493" d="M222.03 267.05c-7.12-5.62-14.27-11.22-21.35-16.9-1.14-.9-2.3-1.2-3.68-1.15l1.02-4c.3 0 .63 0 .95-.02 8.25 6.3 16.44 12.68 24.8 18.8 1.85 1.35 1.66 2 .24 3.17l-1.9.1z"/>
        <path fill="#3D1B51" d="M188 126c-.6 4.42-3.05 8.42-3 13h-1c-2.74-5.97-5.37-11.98-8-18-.2-2.4-2.4-3.8-3-6l2-4c.15.06.33.1.45.2 2.34 2.02 5.32-2.75 6.56-.18 2.4 4.8 6.7 8.97 6 14.98z"/>
        <path fill="#6B5C74" d="M202.98 228c-3.92 1.06-6.98-1.52-10.07-2.92-3.8-1.75-7.1-4.7-10.5-7.33-2.1-1.62-4-1.84-6.3-.75-1.3-3.4 1.1-5.53 2.6-8 4.3-.76 7.9.1 11.4 3.06 4.1 3.56 8.6 6.8 14.1 7.94v2l-1 6z"/>
        <path fill="#665670" d="M205 209v4c.1 1.75-.05 3.46-1 5-5.56.2-9.38-3.74-13.8-6.07-3.62-1.9-6.84-4.66-9.6-7.8-.25-.74-.2-1.44.22-2.1 1.45-1.35 3.18-1.24 4.6-.3 5.07 3.4 11.2 4.9 16.54 9.75-1.4-1.83-2.16-3.05-1.17-4.2 1.2-1.48 2.9-1.26 4.4-.3.2.73.3 1.4-.3 2.02z"/>
        <path fill="#685873" d="M181 204c7.3 5.28 14.7 10.37 23 14v2c-5.95.5-10.32-2.78-14.06-6.6-3.17-3.2-7.5-2.48-10.94-4.4-.4-.35-.63-.78-.74-1.3.18-1.77.2-3.67 2.74-3.7z"/>
        <path fill="#715F7C" d="M265 246.98V252l-59-45c-1.2-1.34-1.32-2.82-.6-4.42 2.48-2.53 4.4-.25 6 1.05 11.9 9.58 24.46 18.3 36.4 27.84 5.7 4.55 11.96 8.37 17.2 13.53v1.98z"/>
        <path fill="#6E5C79" d="M206 202v5c-.02.82-.2 1.57-1 2v-2c-1.24-1.23-1.24-2.7-.76-4.23.2-.48.56-.82 1.05-1.02l.7.25zm58.98 43c-6.96-3.22-12.38-8.65-18.46-13.1-12.5-9.18-24.7-18.77-37.04-28.17-1.04-.8-2-1.8-3.48-1.73-.9-1.04-1.02-2.2.07-3.04 1.3-1 2.5-.1 3.62.6 4.1 2.7 8.5 5.42 12.1 8.6 5.3 4.7 12.3 6.02 17.4 10.75 2.5 2.4 5.2 4.5 7.2 7.5 3 4.5 7.5 7.4 12.3 9.6 2.2 1 4 2 5.1 4.2l1 1c0 1.4 0 2.7-.1 4z"/>
        <path fill="#594666" d="M169 304c9.78.6 18.93 3.45 27.75 7.63 2.18 1.03 4.5-.77 7.12.44 6.5 3.02 13.43 5.07 19.96 8 2.18 1 4.16.64 6.23.95-2.7 2.15-6.34-.05-9.06 1.96h-7c-4.67-3.78-10.7-3.87-16-5.95-5.2-2.03-11.05-1.93-16-5.18-1.77-1.17-4.7-.6-7.1-.82-2.75-1.68-4.17-4.5-5.9-7.03z"/>
        <path fill="#432356" d="M169 145l1-4c1.98-.73 3.36-3.06 5.93-2.25 4.18 4.8 4.5 10.73 4.96 16.62-.6 3 .2 6.3-2.2 8.8-2.1-.3-1.7-2.2-2.2-3.47-1.1-3.2-2.1-6.3-5.4-8.1-2.1-1.14-2.3-3.55-3-5.58-.1-.78.1-1.47.7-2.02z"/>
        <path fill="#462A57" d="M169 145v2c-1.38 3.37-.78 6.77-.2 10.18-.38 1.86-.74 3.74-2.44 4.94-3.2-1.77-3.08-5.32-4.36-8.12-2.57-5.2-.45-10.68-1-16 1.46.16 2.75-.32 4-1 2.8 1.94 1.2 6.06 4 8z"/>
        <path fill="#412353" d="M175 139c-1.77.4-2.44 3.57-5 2 1.06-4.24-1-7.8-3.5-10.5-2.98-3.2-2.65-5.2.5-7.5 3.35-.03 6.1 1.14 8 4 .33 4-.37 8 0 12z"/>
        <path fill="#482C59" d="M162 154c2.62 2.02 3.27 5.03 4 8 3.7 4.13 3.34 8.12-1 11-.28-4.66-3.4-8.44-4-13l-1-4c.38-.95 1.05-1.62 2-2z"/>
        <path fill="#6C5977" d="M264 240c-2.33-3.36-6.6-2.8-9.78-4.92-7.64-5.08-11.64-13.88-19.8-18.26-1.7-.92-2.88-2.78-5.23-2-1.3.4-2.3-.3-3.1-1.23-4.8-5.9-12.1-8.4-17.5-13.4-2.5-2.4-2.5.1-2.6 1.8h-1c-.8-.6-1.1-1.5-1.2-2.4-.1-2.7-.8-5.4 1.2-7.7 2.1-.6 3.4.9 4.8 2 15.9 11.9 31.6 24.2 47.6 36 2 1.5 3.9 3.1 5.6 4.9l.9 5z"/>
        <path fill="#6A5676" d="M262.98 235c-2.12 0-3.02-1.85-4.45-2.92C240.7 218.7 222.85 205.36 205 192c.06-1.56-.35-3.34 2.23-1.36 10.85 8.36 21.82 16.57 32.75 24.83 6.58 4.97 13.2 9.9 19.73 14.94 2.4 1.8 2.4.3 2.3-1.4.4 0 .7 0 1 .1v5.9z"/>
        <path fill="#401F54" d="M175 139c-2.5-4-1.85-8 0-12 1.8-1.75.68-4 1-6 3.92 5.45 7.57 11 8 18l-3 15c.4 1.06-.1 1.22-1 1-.06-5.84-2.13-11.04-5-16z"/>
        <path fill="#4F3C5B" d="M190 176c-.8.43-.98 1.18-1 2-2.45 1.23-4.4-.18-6.42-1.2-.37-.67-.48-1.4-.42-2.14.63-1.74.03-4.23 2.8-4.67 2.34-.1 3.2 2.2 5.04 3v3z"/>
        <path fill="#3D1C50" d="M184.96 170c-1.54 1.3-.7 3.56-1.96 5-2.9.27-5.32-.55-6.9-3.2-.57-2.88-.4-5.6 1.9-7.8 1.9-2.72.48-6.2 2-9l1-1 5 7v2c-.58 2.3-1.3 4.57-1.04 7z"/>
        <path fill="#5F4D6A" d="M188 182c3.9 2.88 8.47 4.74 12.13 8 1.02.92 2.2 2.14 3.87 1v1c.56 2.88 1.83 6.28-1.07 8.2-2.97 1.95-5.27-1.07-7.33-2.76-3.37-2.77-7.18-4.82-10.65-7.4-1.3-2.37.62-4.27.95-6.4.44-.9.7-1.98 2.1-1.64z"/>
        <path fill="#61506C" d="M185 190c3.82-.37 5.8 3 8.78 4.36.7.32 1.1 1.4 1.82 1.63 2.54.8 3.86 5.1 7.02 3.3 2.73-1.5.96-4.9 1.38-7.4h1v8c-1.1 6.5-1.53 6.9-6.72 2.5-4.37-3.7-10.4-4.1-14.4-8.2-.92-1.5-.46-2.8.5-4l.62-.4z"/>
        <path fill="#53405E" d="M188 182c-.8.43-.98 1.18-1 2-2.6 1.66-4.12.1-5.52-1.84-.67-2.07-.33-3.84 1.54-5.16 2.3-1.45 3.9 1.17 5.98 1l-1 4z"/>
        <path fill="#948B99" d="M195.03 253c7.4 4.03 13.87 9.32 20 15.05-.68.3-1.35.63-2.03.95l-4-.03c-.97-4.93-6.1-5.72-8.93-8.82-1.62-1.78-4.06-2.82-6.13-4.2l1.1-2.94z"/>
        <path fill="#48285A" d="M165 173c2.85-3.44 2.77-7.14 1-11l2-5c2.32-.1 2.58 1.94 3.02 3.33 1.33 4.26 2.9 8.37 5.5 12.04 1.63 3.88.08 7.6-.5 11.37-1.1 1.7.13 4.74-3.02 5.26-.8-5.5-5.54-8.54-8-13v-3z"/>
        <path fill="#442457" d="M173 189c1.9-1.17.1-3.83 2-5 1.27 2.27 4.2 2.7 5.53 4.92.2.45.3.9.34 1.4 0 1.75-.68 3.36-1.1 5.03-.7 1.9-.74 4.23-3.1 5.15-4.47-.9-4.5-4-3.67-7.5v-4z"/>
        <path fill="#47285B" d="M173 193c-.13 3.17.7 5.8 4 7 .6.54.8 1.24.82 2.02-.24 2.45-1.08 4.78-1.6 7.18-.38 1.23-.85 2.38-2.23 2.8-1 .3-1.9.74-2.1-.92-.6-6.1-.5-12.12 1-18.08z"/>
        <path fill="#65566E" d="M174 212l1.04-3c1-1.63 2.22-2.32 3.96-1v1l-3 8c-1 .27-1.98.18-2.97 0l.96-5z"/>
        <path fill="#6B5C74" d="M173.03 217c1-.63 1.98-.6 2.97 0-.65 2.22.43 5.86-4.04 4.97-.06-1.74.12-3.44 1.07-4.97z"/>
        <path fill="#64536E" d="M184 194c4.86 2.57 10.62 3.6 14.65 7.5 3.38 3.28 5.2 3.18 6.34-1.5v7c-8.5.2 1.4 4.72-1.8 6.36-5.2-4.6-12.2-6.45-17.9-10.54-1.4-.96-2.9-.76-4.3-.82l-.5-.52c-.5-2.15 1-3.78 1.5-5.67.4-.8.9-1.5 1.9-1.8z"/>
        <path fill="#61516B" d="M179 208c-1.44-.15-2.73.3-3.96 1 .65-2.34 1.3-4.67 1.97-7 1.4-3.67 2.7-2.04 4 0v2c-1.3 1.02-1.8 2.4-2 4z"/>
        <path fill="#452558" d="M176 172c-3.23-1.15-4.16-4-4.77-6.88-.62-2.93-1.7-5.6-3.23-8.12-1.2-3.5-2.65-7 1-10 .57 4.9 6.86 5.37 7.82 10.27.43 2.23 1.32 4.38 1.18 6.73-.05 2.7-1.5 5.23-1 8-.33.48-.66.46-1 0z"/>
        <path fill="#402053" d="M176 172h1l6 3c0 .67 0 1.34.02 2l-1 5c.64 2.72.3 5.15-2.05 7-1.6-1.7-6.07-.6-4.97-5-.25-4.05 1.64-7.92 1-12z"/>
        <path fill="#554461" d="M179.97 189l2.04-7c1.6.9 2.9 2.42 5 2l-2 6c-1.6 1.13-3.3-.5-5 0v-1z"/>
        <path fill="#5A4964" d="M180 190c1.67-2.6 3.33.2 5 0l-1 4-1 2c-1.72 1.18-3.06.9-4-1l1-5z"/>
        <path fill="#5C4B66" d="M179 195c1.24.68 2.54 1.16 4 1l-2 6c-1.33-.9-2.66-2.07-4 0v-2c1.25-1.44.44-3.7 2-5z"/>
    </g>
</svg>